<mxfile host="app.diagrams.net" modified="2023-06-08T17:28:25.233Z" agent="Mozilla/5.0 (X11; Linux x86_64) AppleWebKit/537.36 (KHTML, like Gecko) Chrome/114.0.0.0 Safari/537.36" etag="I_Ps6itsWLWqt7ymZ-aU" version="21.3.6" type="device">
  <diagram id="R2lEEEUBdFMjLlhIrx00" name="Page-1">
    <mxGraphModel dx="5230" dy="3492" grid="0" gridSize="10" guides="1" tooltips="1" connect="1" arrows="1" fold="1" page="1" pageScale="1" pageWidth="850" pageHeight="1100" math="0" shadow="0" extFonts="Permanent Marker^https://fonts.googleapis.com/css?family=Permanent+Marker">
      <root>
        <mxCell id="0" />
        <mxCell id="1" parent="0" />
        <mxCell id="YyWZi0rBc3QcvuE9bfLS-96" value="customers" style="shape=table;startSize=30;container=1;collapsible=1;childLayout=tableLayout;fixedRows=1;rowLines=0;fontStyle=1;align=center;resizeLast=1;html=1;rounded=1;labelBackgroundColor=none;fillColor=#FFCCE6;strokeColor=#FF3333;fontColor=#182E3E;swimlaneFillColor=#33FFFF;strokeWidth=2;perimeterSpacing=0;gradientColor=#3333FF;gradientDirection=north;" parent="1" vertex="1">
          <mxGeometry x="-1240" y="-1400" width="350" height="390" as="geometry" />
        </mxCell>
        <mxCell id="YyWZi0rBc3QcvuE9bfLS-97" value="" style="shape=tableRow;horizontal=0;startSize=0;swimlaneHead=0;swimlaneBody=0;fillColor=none;collapsible=0;dropTarget=0;points=[[0,0.5],[1,0.5]];portConstraint=eastwest;top=0;left=0;right=0;bottom=1;rounded=1;labelBackgroundColor=none;strokeColor=#BAC8D3;fontColor=#182E3E;" parent="YyWZi0rBc3QcvuE9bfLS-96" vertex="1">
          <mxGeometry y="30" width="350" height="30" as="geometry" />
        </mxCell>
        <mxCell id="YyWZi0rBc3QcvuE9bfLS-98" value="PK" style="shape=partialRectangle;connectable=0;fillColor=none;top=0;left=0;bottom=0;right=0;fontStyle=1;overflow=hidden;whiteSpace=wrap;html=1;rounded=1;labelBackgroundColor=none;strokeColor=#BAC8D3;fontColor=#182E3E;" parent="YyWZi0rBc3QcvuE9bfLS-97" vertex="1">
          <mxGeometry width="30" height="30" as="geometry">
            <mxRectangle width="30" height="30" as="alternateBounds" />
          </mxGeometry>
        </mxCell>
        <mxCell id="YyWZi0rBc3QcvuE9bfLS-99" value="&lt;div&gt;&amp;nbsp; customerNumber numeric(11) NOT NULL&lt;/div&gt;" style="shape=partialRectangle;connectable=0;fillColor=none;top=0;left=0;bottom=0;right=0;align=left;spacingLeft=6;fontStyle=5;overflow=hidden;whiteSpace=wrap;html=1;rounded=1;labelBackgroundColor=none;strokeColor=#BAC8D3;fontColor=#182E3E;" parent="YyWZi0rBc3QcvuE9bfLS-97" vertex="1">
          <mxGeometry x="30" width="320" height="30" as="geometry">
            <mxRectangle width="320" height="30" as="alternateBounds" />
          </mxGeometry>
        </mxCell>
        <mxCell id="YyWZi0rBc3QcvuE9bfLS-100" value="" style="shape=tableRow;horizontal=0;startSize=0;swimlaneHead=0;swimlaneBody=0;fillColor=none;collapsible=0;dropTarget=0;points=[[0,0.5],[1,0.5]];portConstraint=eastwest;top=0;left=0;right=0;bottom=0;rounded=1;labelBackgroundColor=none;strokeColor=#BAC8D3;fontColor=#182E3E;" parent="YyWZi0rBc3QcvuE9bfLS-96" vertex="1">
          <mxGeometry y="60" width="350" height="30" as="geometry" />
        </mxCell>
        <mxCell id="YyWZi0rBc3QcvuE9bfLS-101" value="" style="shape=partialRectangle;connectable=0;fillColor=none;top=0;left=0;bottom=0;right=0;editable=1;overflow=hidden;whiteSpace=wrap;html=1;rounded=1;labelBackgroundColor=none;strokeColor=#BAC8D3;fontColor=#182E3E;" parent="YyWZi0rBc3QcvuE9bfLS-100" vertex="1">
          <mxGeometry width="30" height="30" as="geometry">
            <mxRectangle width="30" height="30" as="alternateBounds" />
          </mxGeometry>
        </mxCell>
        <mxCell id="YyWZi0rBc3QcvuE9bfLS-102" value="&lt;div&gt;&amp;nbsp; customerName varchar(50) NOT NULL&lt;/div&gt;" style="shape=partialRectangle;connectable=0;fillColor=none;top=0;left=0;bottom=0;right=0;align=left;spacingLeft=6;overflow=hidden;whiteSpace=wrap;html=1;rounded=1;labelBackgroundColor=none;strokeColor=#BAC8D3;fontColor=#182E3E;" parent="YyWZi0rBc3QcvuE9bfLS-100" vertex="1">
          <mxGeometry x="30" width="320" height="30" as="geometry">
            <mxRectangle width="320" height="30" as="alternateBounds" />
          </mxGeometry>
        </mxCell>
        <mxCell id="YyWZi0rBc3QcvuE9bfLS-103" value="" style="shape=tableRow;horizontal=0;startSize=0;swimlaneHead=0;swimlaneBody=0;fillColor=none;collapsible=0;dropTarget=0;points=[[0,0.5],[1,0.5]];portConstraint=eastwest;top=0;left=0;right=0;bottom=0;rounded=1;labelBackgroundColor=none;strokeColor=#BAC8D3;fontColor=#182E3E;" parent="YyWZi0rBc3QcvuE9bfLS-96" vertex="1">
          <mxGeometry y="90" width="350" height="30" as="geometry" />
        </mxCell>
        <mxCell id="YyWZi0rBc3QcvuE9bfLS-104" value="" style="shape=partialRectangle;connectable=0;fillColor=none;top=0;left=0;bottom=0;right=0;editable=1;overflow=hidden;whiteSpace=wrap;html=1;rounded=1;labelBackgroundColor=none;strokeColor=#BAC8D3;fontColor=#182E3E;" parent="YyWZi0rBc3QcvuE9bfLS-103" vertex="1">
          <mxGeometry width="30" height="30" as="geometry">
            <mxRectangle width="30" height="30" as="alternateBounds" />
          </mxGeometry>
        </mxCell>
        <mxCell id="YyWZi0rBc3QcvuE9bfLS-105" value="&lt;div&gt;&amp;nbsp; contactLastName varchar(50) NOT NULL&lt;/div&gt;" style="shape=partialRectangle;connectable=0;fillColor=none;top=0;left=0;bottom=0;right=0;align=left;spacingLeft=6;overflow=hidden;whiteSpace=wrap;html=1;rounded=1;labelBackgroundColor=none;strokeColor=#BAC8D3;fontColor=#182E3E;" parent="YyWZi0rBc3QcvuE9bfLS-103" vertex="1">
          <mxGeometry x="30" width="320" height="30" as="geometry">
            <mxRectangle width="320" height="30" as="alternateBounds" />
          </mxGeometry>
        </mxCell>
        <mxCell id="YyWZi0rBc3QcvuE9bfLS-106" value="" style="shape=tableRow;horizontal=0;startSize=0;swimlaneHead=0;swimlaneBody=0;fillColor=none;collapsible=0;dropTarget=0;points=[[0,0.5],[1,0.5]];portConstraint=eastwest;top=0;left=0;right=0;bottom=0;rounded=1;labelBackgroundColor=none;strokeColor=#BAC8D3;fontColor=#182E3E;" parent="YyWZi0rBc3QcvuE9bfLS-96" vertex="1">
          <mxGeometry y="120" width="350" height="30" as="geometry" />
        </mxCell>
        <mxCell id="YyWZi0rBc3QcvuE9bfLS-107" value="" style="shape=partialRectangle;connectable=0;fillColor=none;top=0;left=0;bottom=0;right=0;editable=1;overflow=hidden;whiteSpace=wrap;html=1;rounded=1;labelBackgroundColor=none;strokeColor=#BAC8D3;fontColor=#182E3E;" parent="YyWZi0rBc3QcvuE9bfLS-106" vertex="1">
          <mxGeometry width="30" height="30" as="geometry">
            <mxRectangle width="30" height="30" as="alternateBounds" />
          </mxGeometry>
        </mxCell>
        <mxCell id="YyWZi0rBc3QcvuE9bfLS-108" value="&lt;div&gt;&amp;nbsp; contactFirstName varchar(50) NOT NULL&lt;/div&gt;" style="shape=partialRectangle;connectable=0;fillColor=none;top=0;left=0;bottom=0;right=0;align=left;spacingLeft=6;overflow=hidden;whiteSpace=wrap;html=1;rounded=1;labelBackgroundColor=none;strokeColor=#BAC8D3;fontColor=#182E3E;" parent="YyWZi0rBc3QcvuE9bfLS-106" vertex="1">
          <mxGeometry x="30" width="320" height="30" as="geometry">
            <mxRectangle width="320" height="30" as="alternateBounds" />
          </mxGeometry>
        </mxCell>
        <mxCell id="YyWZi0rBc3QcvuE9bfLS-109" value="" style="shape=tableRow;horizontal=0;startSize=0;swimlaneHead=0;swimlaneBody=0;fillColor=none;collapsible=0;dropTarget=0;points=[[0,0.5],[1,0.5]];portConstraint=eastwest;top=0;left=0;right=0;bottom=0;rounded=1;labelBackgroundColor=none;strokeColor=#BAC8D3;fontColor=#182E3E;" parent="YyWZi0rBc3QcvuE9bfLS-96" vertex="1">
          <mxGeometry y="150" width="350" height="30" as="geometry" />
        </mxCell>
        <mxCell id="YyWZi0rBc3QcvuE9bfLS-110" value="" style="shape=partialRectangle;connectable=0;fillColor=none;top=0;left=0;bottom=0;right=0;editable=1;overflow=hidden;whiteSpace=wrap;html=1;rounded=1;labelBackgroundColor=none;strokeColor=#BAC8D3;fontColor=#182E3E;" parent="YyWZi0rBc3QcvuE9bfLS-109" vertex="1">
          <mxGeometry width="30" height="30" as="geometry">
            <mxRectangle width="30" height="30" as="alternateBounds" />
          </mxGeometry>
        </mxCell>
        <mxCell id="YyWZi0rBc3QcvuE9bfLS-111" value="&lt;div&gt;&amp;nbsp; phone varchar(50) NOT NULL&lt;/div&gt;" style="shape=partialRectangle;connectable=0;fillColor=none;top=0;left=0;bottom=0;right=0;align=left;spacingLeft=6;overflow=hidden;whiteSpace=wrap;html=1;rounded=1;labelBackgroundColor=none;strokeColor=#BAC8D3;fontColor=#182E3E;" parent="YyWZi0rBc3QcvuE9bfLS-109" vertex="1">
          <mxGeometry x="30" width="320" height="30" as="geometry">
            <mxRectangle width="320" height="30" as="alternateBounds" />
          </mxGeometry>
        </mxCell>
        <mxCell id="YyWZi0rBc3QcvuE9bfLS-112" value="" style="shape=tableRow;horizontal=0;startSize=0;swimlaneHead=0;swimlaneBody=0;fillColor=none;collapsible=0;dropTarget=0;points=[[0,0.5],[1,0.5]];portConstraint=eastwest;top=0;left=0;right=0;bottom=0;rounded=1;labelBackgroundColor=none;strokeColor=#BAC8D3;fontColor=#182E3E;" parent="YyWZi0rBc3QcvuE9bfLS-96" vertex="1">
          <mxGeometry y="180" width="350" height="30" as="geometry" />
        </mxCell>
        <mxCell id="YyWZi0rBc3QcvuE9bfLS-113" value="" style="shape=partialRectangle;connectable=0;fillColor=none;top=0;left=0;bottom=0;right=0;editable=1;overflow=hidden;whiteSpace=wrap;html=1;rounded=1;labelBackgroundColor=none;strokeColor=#BAC8D3;fontColor=#182E3E;" parent="YyWZi0rBc3QcvuE9bfLS-112" vertex="1">
          <mxGeometry width="30" height="30" as="geometry">
            <mxRectangle width="30" height="30" as="alternateBounds" />
          </mxGeometry>
        </mxCell>
        <mxCell id="YyWZi0rBc3QcvuE9bfLS-114" value="&lt;div&gt;&amp;nbsp; addressLine varchar(50) NOT NULL&lt;/div&gt;" style="shape=partialRectangle;connectable=0;fillColor=none;top=0;left=0;bottom=0;right=0;align=left;spacingLeft=6;overflow=hidden;whiteSpace=wrap;html=1;rounded=1;labelBackgroundColor=none;strokeColor=#BAC8D3;fontColor=#182E3E;" parent="YyWZi0rBc3QcvuE9bfLS-112" vertex="1">
          <mxGeometry x="30" width="320" height="30" as="geometry">
            <mxRectangle width="320" height="30" as="alternateBounds" />
          </mxGeometry>
        </mxCell>
        <mxCell id="YyWZi0rBc3QcvuE9bfLS-115" value="" style="shape=tableRow;horizontal=0;startSize=0;swimlaneHead=0;swimlaneBody=0;fillColor=none;collapsible=0;dropTarget=0;points=[[0,0.5],[1,0.5]];portConstraint=eastwest;top=0;left=0;right=0;bottom=0;rounded=1;labelBackgroundColor=none;strokeColor=#BAC8D3;fontColor=#182E3E;" parent="YyWZi0rBc3QcvuE9bfLS-96" vertex="1">
          <mxGeometry y="210" width="350" height="30" as="geometry" />
        </mxCell>
        <mxCell id="YyWZi0rBc3QcvuE9bfLS-116" value="" style="shape=partialRectangle;connectable=0;fillColor=none;top=0;left=0;bottom=0;right=0;editable=1;overflow=hidden;whiteSpace=wrap;html=1;rounded=1;labelBackgroundColor=none;strokeColor=#BAC8D3;fontColor=#182E3E;" parent="YyWZi0rBc3QcvuE9bfLS-115" vertex="1">
          <mxGeometry width="30" height="30" as="geometry">
            <mxRectangle width="30" height="30" as="alternateBounds" />
          </mxGeometry>
        </mxCell>
        <mxCell id="YyWZi0rBc3QcvuE9bfLS-117" value="&lt;div&gt;&amp;nbsp; city varchar(50) NOT NULL&lt;/div&gt;" style="shape=partialRectangle;connectable=0;fillColor=none;top=0;left=0;bottom=0;right=0;align=left;spacingLeft=6;overflow=hidden;whiteSpace=wrap;html=1;rounded=1;labelBackgroundColor=none;strokeColor=#BAC8D3;fontColor=#182E3E;" parent="YyWZi0rBc3QcvuE9bfLS-115" vertex="1">
          <mxGeometry x="30" width="320" height="30" as="geometry">
            <mxRectangle width="320" height="30" as="alternateBounds" />
          </mxGeometry>
        </mxCell>
        <mxCell id="YyWZi0rBc3QcvuE9bfLS-118" value="" style="shape=tableRow;horizontal=0;startSize=0;swimlaneHead=0;swimlaneBody=0;fillColor=none;collapsible=0;dropTarget=0;points=[[0,0.5],[1,0.5]];portConstraint=eastwest;top=0;left=0;right=0;bottom=0;rounded=1;labelBackgroundColor=none;strokeColor=#BAC8D3;fontColor=#182E3E;" parent="YyWZi0rBc3QcvuE9bfLS-96" vertex="1">
          <mxGeometry y="240" width="350" height="30" as="geometry" />
        </mxCell>
        <mxCell id="YyWZi0rBc3QcvuE9bfLS-119" value="" style="shape=partialRectangle;connectable=0;fillColor=none;top=0;left=0;bottom=0;right=0;editable=1;overflow=hidden;whiteSpace=wrap;html=1;rounded=1;labelBackgroundColor=none;strokeColor=#BAC8D3;fontColor=#182E3E;" parent="YyWZi0rBc3QcvuE9bfLS-118" vertex="1">
          <mxGeometry width="30" height="30" as="geometry">
            <mxRectangle width="30" height="30" as="alternateBounds" />
          </mxGeometry>
        </mxCell>
        <mxCell id="YyWZi0rBc3QcvuE9bfLS-120" value="&lt;div&gt;&amp;nbsp; state varchar(50) DEFAULT NULL&lt;/div&gt;" style="shape=partialRectangle;connectable=0;fillColor=none;top=0;left=0;bottom=0;right=0;align=left;spacingLeft=6;overflow=hidden;whiteSpace=wrap;html=1;rounded=1;labelBackgroundColor=none;strokeColor=#BAC8D3;fontColor=#182E3E;" parent="YyWZi0rBc3QcvuE9bfLS-118" vertex="1">
          <mxGeometry x="30" width="320" height="30" as="geometry">
            <mxRectangle width="320" height="30" as="alternateBounds" />
          </mxGeometry>
        </mxCell>
        <mxCell id="YyWZi0rBc3QcvuE9bfLS-121" value="" style="shape=tableRow;horizontal=0;startSize=0;swimlaneHead=0;swimlaneBody=0;fillColor=none;collapsible=0;dropTarget=0;points=[[0,0.5],[1,0.5]];portConstraint=eastwest;top=0;left=0;right=0;bottom=0;rounded=1;labelBackgroundColor=none;strokeColor=#BAC8D3;fontColor=#182E3E;" parent="YyWZi0rBc3QcvuE9bfLS-96" vertex="1">
          <mxGeometry y="270" width="350" height="30" as="geometry" />
        </mxCell>
        <mxCell id="YyWZi0rBc3QcvuE9bfLS-122" value="" style="shape=partialRectangle;connectable=0;fillColor=none;top=0;left=0;bottom=0;right=0;editable=1;overflow=hidden;whiteSpace=wrap;html=1;rounded=1;labelBackgroundColor=none;strokeColor=#BAC8D3;fontColor=#182E3E;" parent="YyWZi0rBc3QcvuE9bfLS-121" vertex="1">
          <mxGeometry width="30" height="30" as="geometry">
            <mxRectangle width="30" height="30" as="alternateBounds" />
          </mxGeometry>
        </mxCell>
        <mxCell id="YyWZi0rBc3QcvuE9bfLS-123" value="&lt;div&gt;&amp;nbsp; postalCode varchar(15) DEFAULT NULL&lt;/div&gt;" style="shape=partialRectangle;connectable=0;fillColor=none;top=0;left=0;bottom=0;right=0;align=left;spacingLeft=6;overflow=hidden;whiteSpace=wrap;html=1;rounded=1;labelBackgroundColor=none;strokeColor=#BAC8D3;fontColor=#182E3E;" parent="YyWZi0rBc3QcvuE9bfLS-121" vertex="1">
          <mxGeometry x="30" width="320" height="30" as="geometry">
            <mxRectangle width="320" height="30" as="alternateBounds" />
          </mxGeometry>
        </mxCell>
        <mxCell id="YyWZi0rBc3QcvuE9bfLS-124" value="" style="shape=tableRow;horizontal=0;startSize=0;swimlaneHead=0;swimlaneBody=0;fillColor=none;collapsible=0;dropTarget=0;points=[[0,0.5],[1,0.5]];portConstraint=eastwest;top=0;left=0;right=0;bottom=0;rounded=1;labelBackgroundColor=none;strokeColor=#BAC8D3;fontColor=#182E3E;" parent="YyWZi0rBc3QcvuE9bfLS-96" vertex="1">
          <mxGeometry y="300" width="350" height="30" as="geometry" />
        </mxCell>
        <mxCell id="YyWZi0rBc3QcvuE9bfLS-125" value="" style="shape=partialRectangle;connectable=0;fillColor=none;top=0;left=0;bottom=0;right=0;editable=1;overflow=hidden;whiteSpace=wrap;html=1;rounded=1;labelBackgroundColor=none;strokeColor=#BAC8D3;fontColor=#182E3E;" parent="YyWZi0rBc3QcvuE9bfLS-124" vertex="1">
          <mxGeometry width="30" height="30" as="geometry">
            <mxRectangle width="30" height="30" as="alternateBounds" />
          </mxGeometry>
        </mxCell>
        <mxCell id="YyWZi0rBc3QcvuE9bfLS-126" value="&lt;div&gt;&amp;nbsp; country varchar(50) NOT NULL&lt;/div&gt;" style="shape=partialRectangle;connectable=0;fillColor=none;top=0;left=0;bottom=0;right=0;align=left;spacingLeft=6;overflow=hidden;whiteSpace=wrap;html=1;rounded=1;labelBackgroundColor=none;strokeColor=#BAC8D3;fontColor=#182E3E;" parent="YyWZi0rBc3QcvuE9bfLS-124" vertex="1">
          <mxGeometry x="30" width="320" height="30" as="geometry">
            <mxRectangle width="320" height="30" as="alternateBounds" />
          </mxGeometry>
        </mxCell>
        <mxCell id="YyWZi0rBc3QcvuE9bfLS-127" value="" style="shape=tableRow;horizontal=0;startSize=0;swimlaneHead=0;swimlaneBody=0;fillColor=none;collapsible=0;dropTarget=0;points=[[0,0.5],[1,0.5]];portConstraint=eastwest;top=0;left=0;right=0;bottom=0;rounded=1;labelBackgroundColor=none;strokeColor=#BAC8D3;fontColor=#182E3E;" parent="YyWZi0rBc3QcvuE9bfLS-96" vertex="1">
          <mxGeometry y="330" width="350" height="30" as="geometry" />
        </mxCell>
        <mxCell id="YyWZi0rBc3QcvuE9bfLS-128" value="FK" style="shape=partialRectangle;connectable=0;fillColor=none;top=0;left=0;bottom=0;right=0;editable=1;overflow=hidden;whiteSpace=wrap;html=1;rounded=1;labelBackgroundColor=none;strokeColor=#BAC8D3;fontColor=#182E3E;" parent="YyWZi0rBc3QcvuE9bfLS-127" vertex="1">
          <mxGeometry width="30" height="30" as="geometry">
            <mxRectangle width="30" height="30" as="alternateBounds" />
          </mxGeometry>
        </mxCell>
        <mxCell id="YyWZi0rBc3QcvuE9bfLS-129" value="&lt;div&gt;&amp;nbsp; salesRepEmployeeNumber numeric(11) DEFAULT NULL&lt;/div&gt;" style="shape=partialRectangle;connectable=0;fillColor=none;top=0;left=0;bottom=0;right=0;align=left;spacingLeft=6;overflow=hidden;whiteSpace=wrap;html=1;rounded=1;labelBackgroundColor=none;strokeColor=#BAC8D3;fontColor=#182E3E;" parent="YyWZi0rBc3QcvuE9bfLS-127" vertex="1">
          <mxGeometry x="30" width="320" height="30" as="geometry">
            <mxRectangle width="320" height="30" as="alternateBounds" />
          </mxGeometry>
        </mxCell>
        <mxCell id="YyWZi0rBc3QcvuE9bfLS-130" value="" style="shape=tableRow;horizontal=0;startSize=0;swimlaneHead=0;swimlaneBody=0;fillColor=none;collapsible=0;dropTarget=0;points=[[0,0.5],[1,0.5]];portConstraint=eastwest;top=0;left=0;right=0;bottom=0;rounded=1;labelBackgroundColor=none;strokeColor=#BAC8D3;fontColor=#182E3E;" parent="YyWZi0rBc3QcvuE9bfLS-96" vertex="1">
          <mxGeometry y="360" width="350" height="30" as="geometry" />
        </mxCell>
        <mxCell id="YyWZi0rBc3QcvuE9bfLS-131" value="" style="shape=partialRectangle;connectable=0;fillColor=none;top=0;left=0;bottom=0;right=0;editable=1;overflow=hidden;whiteSpace=wrap;html=1;rounded=1;labelBackgroundColor=none;strokeColor=#BAC8D3;fontColor=#182E3E;" parent="YyWZi0rBc3QcvuE9bfLS-130" vertex="1">
          <mxGeometry width="30" height="30" as="geometry">
            <mxRectangle width="30" height="30" as="alternateBounds" />
          </mxGeometry>
        </mxCell>
        <mxCell id="YyWZi0rBc3QcvuE9bfLS-132" value="&lt;div&gt;&amp;nbsp; creditLimit decimal(10,2) DEFAULT NULL&lt;/div&gt;" style="shape=partialRectangle;connectable=0;fillColor=none;top=0;left=0;bottom=0;right=0;align=left;spacingLeft=6;overflow=hidden;whiteSpace=wrap;html=1;rounded=1;labelBackgroundColor=none;strokeColor=#BAC8D3;fontColor=#182E3E;" parent="YyWZi0rBc3QcvuE9bfLS-130" vertex="1">
          <mxGeometry x="30" width="320" height="30" as="geometry">
            <mxRectangle width="320" height="30" as="alternateBounds" />
          </mxGeometry>
        </mxCell>
        <mxCell id="YyWZi0rBc3QcvuE9bfLS-133" value="orders" style="shape=table;startSize=30;container=1;collapsible=1;childLayout=tableLayout;fixedRows=1;rowLines=0;fontStyle=1;align=center;resizeLast=1;html=1;rounded=1;labelBackgroundColor=none;fillColor=#FFCCE6;strokeColor=#FF3333;fontColor=#182E3E;swimlaneFillColor=#33FFFF;strokeWidth=2;gradientColor=#3333FF;gradientDirection=north;" parent="1" vertex="1">
          <mxGeometry x="-680" y="-1400" width="270" height="270" as="geometry" />
        </mxCell>
        <mxCell id="YyWZi0rBc3QcvuE9bfLS-134" value="" style="shape=tableRow;horizontal=0;startSize=0;swimlaneHead=0;swimlaneBody=0;fillColor=none;collapsible=0;dropTarget=0;points=[[0,0.5],[1,0.5]];portConstraint=eastwest;top=0;left=0;right=0;bottom=1;rounded=1;labelBackgroundColor=none;strokeColor=#BAC8D3;fontColor=#182E3E;" parent="YyWZi0rBc3QcvuE9bfLS-133" vertex="1">
          <mxGeometry y="30" width="270" height="30" as="geometry" />
        </mxCell>
        <mxCell id="YyWZi0rBc3QcvuE9bfLS-135" value="PK" style="shape=partialRectangle;connectable=0;fillColor=none;top=0;left=0;bottom=0;right=0;fontStyle=1;overflow=hidden;whiteSpace=wrap;html=1;rounded=1;labelBackgroundColor=none;strokeColor=#BAC8D3;fontColor=#182E3E;" parent="YyWZi0rBc3QcvuE9bfLS-134" vertex="1">
          <mxGeometry width="30" height="30" as="geometry">
            <mxRectangle width="30" height="30" as="alternateBounds" />
          </mxGeometry>
        </mxCell>
        <mxCell id="YyWZi0rBc3QcvuE9bfLS-136" value="&lt;div&gt;&amp;nbsp; orderNumber numeric(11) NOT NULL&lt;/div&gt;" style="shape=partialRectangle;connectable=0;fillColor=none;top=0;left=0;bottom=0;right=0;align=left;spacingLeft=6;fontStyle=5;overflow=hidden;whiteSpace=wrap;html=1;rounded=1;labelBackgroundColor=none;strokeColor=#BAC8D3;fontColor=#182E3E;" parent="YyWZi0rBc3QcvuE9bfLS-134" vertex="1">
          <mxGeometry x="30" width="240" height="30" as="geometry">
            <mxRectangle width="240" height="30" as="alternateBounds" />
          </mxGeometry>
        </mxCell>
        <mxCell id="YyWZi0rBc3QcvuE9bfLS-137" value="" style="shape=tableRow;horizontal=0;startSize=0;swimlaneHead=0;swimlaneBody=0;fillColor=none;collapsible=0;dropTarget=0;points=[[0,0.5],[1,0.5]];portConstraint=eastwest;top=0;left=0;right=0;bottom=0;rounded=1;labelBackgroundColor=none;strokeColor=#BAC8D3;fontColor=#182E3E;" parent="YyWZi0rBc3QcvuE9bfLS-133" vertex="1">
          <mxGeometry y="60" width="270" height="30" as="geometry" />
        </mxCell>
        <mxCell id="YyWZi0rBc3QcvuE9bfLS-138" value="" style="shape=partialRectangle;connectable=0;fillColor=none;top=0;left=0;bottom=0;right=0;editable=1;overflow=hidden;whiteSpace=wrap;html=1;rounded=1;labelBackgroundColor=none;strokeColor=#BAC8D3;fontColor=#182E3E;" parent="YyWZi0rBc3QcvuE9bfLS-137" vertex="1">
          <mxGeometry width="30" height="30" as="geometry">
            <mxRectangle width="30" height="30" as="alternateBounds" />
          </mxGeometry>
        </mxCell>
        <mxCell id="YyWZi0rBc3QcvuE9bfLS-139" value="&lt;div&gt;&amp;nbsp; orderDate date NOT NULL&lt;/div&gt;" style="shape=partialRectangle;connectable=0;fillColor=none;top=0;left=0;bottom=0;right=0;align=left;spacingLeft=6;overflow=hidden;whiteSpace=wrap;html=1;rounded=1;labelBackgroundColor=none;strokeColor=#BAC8D3;fontColor=#182E3E;" parent="YyWZi0rBc3QcvuE9bfLS-137" vertex="1">
          <mxGeometry x="30" width="240" height="30" as="geometry">
            <mxRectangle width="240" height="30" as="alternateBounds" />
          </mxGeometry>
        </mxCell>
        <mxCell id="YyWZi0rBc3QcvuE9bfLS-140" value="" style="shape=tableRow;horizontal=0;startSize=0;swimlaneHead=0;swimlaneBody=0;fillColor=none;collapsible=0;dropTarget=0;points=[[0,0.5],[1,0.5]];portConstraint=eastwest;top=0;left=0;right=0;bottom=0;rounded=1;labelBackgroundColor=none;strokeColor=#BAC8D3;fontColor=#182E3E;" parent="YyWZi0rBc3QcvuE9bfLS-133" vertex="1">
          <mxGeometry y="90" width="270" height="30" as="geometry" />
        </mxCell>
        <mxCell id="YyWZi0rBc3QcvuE9bfLS-141" value="" style="shape=partialRectangle;connectable=0;fillColor=none;top=0;left=0;bottom=0;right=0;editable=1;overflow=hidden;whiteSpace=wrap;html=1;rounded=1;labelBackgroundColor=none;strokeColor=#BAC8D3;fontColor=#182E3E;" parent="YyWZi0rBc3QcvuE9bfLS-140" vertex="1">
          <mxGeometry width="30" height="30" as="geometry">
            <mxRectangle width="30" height="30" as="alternateBounds" />
          </mxGeometry>
        </mxCell>
        <mxCell id="YyWZi0rBc3QcvuE9bfLS-142" value="&lt;div&gt;&amp;nbsp; requiredDate date NOT NULL&lt;/div&gt;" style="shape=partialRectangle;connectable=0;fillColor=none;top=0;left=0;bottom=0;right=0;align=left;spacingLeft=6;overflow=hidden;whiteSpace=wrap;html=1;rounded=1;labelBackgroundColor=none;strokeColor=#BAC8D3;fontColor=#182E3E;" parent="YyWZi0rBc3QcvuE9bfLS-140" vertex="1">
          <mxGeometry x="30" width="240" height="30" as="geometry">
            <mxRectangle width="240" height="30" as="alternateBounds" />
          </mxGeometry>
        </mxCell>
        <mxCell id="YyWZi0rBc3QcvuE9bfLS-143" value="" style="shape=tableRow;horizontal=0;startSize=0;swimlaneHead=0;swimlaneBody=0;fillColor=none;collapsible=0;dropTarget=0;points=[[0,0.5],[1,0.5]];portConstraint=eastwest;top=0;left=0;right=0;bottom=0;rounded=1;labelBackgroundColor=none;strokeColor=#BAC8D3;fontColor=#182E3E;" parent="YyWZi0rBc3QcvuE9bfLS-133" vertex="1">
          <mxGeometry y="120" width="270" height="30" as="geometry" />
        </mxCell>
        <mxCell id="YyWZi0rBc3QcvuE9bfLS-144" value="" style="shape=partialRectangle;connectable=0;fillColor=none;top=0;left=0;bottom=0;right=0;editable=1;overflow=hidden;whiteSpace=wrap;html=1;rounded=1;labelBackgroundColor=none;strokeColor=#BAC8D3;fontColor=#182E3E;" parent="YyWZi0rBc3QcvuE9bfLS-143" vertex="1">
          <mxGeometry width="30" height="30" as="geometry">
            <mxRectangle width="30" height="30" as="alternateBounds" />
          </mxGeometry>
        </mxCell>
        <mxCell id="YyWZi0rBc3QcvuE9bfLS-145" value="&lt;div&gt;&amp;nbsp; shippedDate date DEFAULT NULL&lt;/div&gt;" style="shape=partialRectangle;connectable=0;fillColor=none;top=0;left=0;bottom=0;right=0;align=left;spacingLeft=6;overflow=hidden;whiteSpace=wrap;html=1;rounded=1;labelBackgroundColor=none;strokeColor=#BAC8D3;fontColor=#182E3E;" parent="YyWZi0rBc3QcvuE9bfLS-143" vertex="1">
          <mxGeometry x="30" width="240" height="30" as="geometry">
            <mxRectangle width="240" height="30" as="alternateBounds" />
          </mxGeometry>
        </mxCell>
        <mxCell id="YyWZi0rBc3QcvuE9bfLS-146" value="" style="shape=tableRow;horizontal=0;startSize=0;swimlaneHead=0;swimlaneBody=0;fillColor=none;collapsible=0;dropTarget=0;points=[[0,0.5],[1,0.5]];portConstraint=eastwest;top=0;left=0;right=0;bottom=0;rounded=1;labelBackgroundColor=none;strokeColor=#BAC8D3;fontColor=#182E3E;" parent="YyWZi0rBc3QcvuE9bfLS-133" vertex="1">
          <mxGeometry y="150" width="270" height="30" as="geometry" />
        </mxCell>
        <mxCell id="YyWZi0rBc3QcvuE9bfLS-147" value="" style="shape=partialRectangle;connectable=0;fillColor=none;top=0;left=0;bottom=0;right=0;editable=1;overflow=hidden;whiteSpace=wrap;html=1;rounded=1;labelBackgroundColor=none;strokeColor=#BAC8D3;fontColor=#182E3E;" parent="YyWZi0rBc3QcvuE9bfLS-146" vertex="1">
          <mxGeometry width="30" height="30" as="geometry">
            <mxRectangle width="30" height="30" as="alternateBounds" />
          </mxGeometry>
        </mxCell>
        <mxCell id="YyWZi0rBc3QcvuE9bfLS-148" value="&lt;div&gt;&amp;nbsp; status varchar(15) NOT NULL&lt;/div&gt;" style="shape=partialRectangle;connectable=0;fillColor=none;top=0;left=0;bottom=0;right=0;align=left;spacingLeft=6;overflow=hidden;whiteSpace=wrap;html=1;rounded=1;labelBackgroundColor=none;strokeColor=#BAC8D3;fontColor=#182E3E;" parent="YyWZi0rBc3QcvuE9bfLS-146" vertex="1">
          <mxGeometry x="30" width="240" height="30" as="geometry">
            <mxRectangle width="240" height="30" as="alternateBounds" />
          </mxGeometry>
        </mxCell>
        <mxCell id="69rP5qAAxECRKgYWpX-x-2" value="" style="shape=tableRow;horizontal=0;startSize=0;swimlaneHead=0;swimlaneBody=0;fillColor=none;collapsible=0;dropTarget=0;points=[[0,0.5],[1,0.5]];portConstraint=eastwest;top=0;left=0;right=0;bottom=0;rounded=1;labelBackgroundColor=none;strokeColor=#BAC8D3;fontColor=#182E3E;" parent="YyWZi0rBc3QcvuE9bfLS-133" vertex="1">
          <mxGeometry y="180" width="270" height="30" as="geometry" />
        </mxCell>
        <mxCell id="69rP5qAAxECRKgYWpX-x-3" value="" style="shape=partialRectangle;connectable=0;fillColor=none;top=0;left=0;bottom=0;right=0;editable=1;overflow=hidden;whiteSpace=wrap;html=1;rounded=1;labelBackgroundColor=none;strokeColor=#BAC8D3;fontColor=#182E3E;" parent="69rP5qAAxECRKgYWpX-x-2" vertex="1">
          <mxGeometry width="30" height="30" as="geometry">
            <mxRectangle width="30" height="30" as="alternateBounds" />
          </mxGeometry>
        </mxCell>
        <mxCell id="69rP5qAAxECRKgYWpX-x-4" value="&lt;div&gt;&amp;nbsp; comments text&lt;/div&gt;" style="shape=partialRectangle;connectable=0;fillColor=none;top=0;left=0;bottom=0;right=0;align=left;spacingLeft=6;overflow=hidden;whiteSpace=wrap;html=1;rounded=1;labelBackgroundColor=none;strokeColor=#BAC8D3;fontColor=#182E3E;" parent="69rP5qAAxECRKgYWpX-x-2" vertex="1">
          <mxGeometry x="30" width="240" height="30" as="geometry">
            <mxRectangle width="240" height="30" as="alternateBounds" />
          </mxGeometry>
        </mxCell>
        <mxCell id="YyWZi0rBc3QcvuE9bfLS-149" value="" style="shape=tableRow;horizontal=0;startSize=0;swimlaneHead=0;swimlaneBody=0;fillColor=none;collapsible=0;dropTarget=0;points=[[0,0.5],[1,0.5]];portConstraint=eastwest;top=0;left=0;right=0;bottom=0;rounded=1;labelBackgroundColor=none;strokeColor=#BAC8D3;fontColor=#182E3E;" parent="YyWZi0rBc3QcvuE9bfLS-133" vertex="1">
          <mxGeometry y="210" width="270" height="30" as="geometry" />
        </mxCell>
        <mxCell id="YyWZi0rBc3QcvuE9bfLS-150" value="" style="shape=partialRectangle;connectable=0;fillColor=none;top=0;left=0;bottom=0;right=0;editable=1;overflow=hidden;whiteSpace=wrap;html=1;rounded=1;labelBackgroundColor=none;strokeColor=#BAC8D3;fontColor=#182E3E;" parent="YyWZi0rBc3QcvuE9bfLS-149" vertex="1">
          <mxGeometry width="30" height="30" as="geometry">
            <mxRectangle width="30" height="30" as="alternateBounds" />
          </mxGeometry>
        </mxCell>
        <mxCell id="YyWZi0rBc3QcvuE9bfLS-151" value="&lt;div&gt;&amp;nbsp; comments text&lt;/div&gt;" style="shape=partialRectangle;connectable=0;fillColor=none;top=0;left=0;bottom=0;right=0;align=left;spacingLeft=6;overflow=hidden;whiteSpace=wrap;html=1;rounded=1;labelBackgroundColor=none;strokeColor=#BAC8D3;fontColor=#182E3E;" parent="YyWZi0rBc3QcvuE9bfLS-149" vertex="1">
          <mxGeometry x="30" width="240" height="30" as="geometry">
            <mxRectangle width="240" height="30" as="alternateBounds" />
          </mxGeometry>
        </mxCell>
        <mxCell id="YyWZi0rBc3QcvuE9bfLS-152" value="" style="shape=tableRow;horizontal=0;startSize=0;swimlaneHead=0;swimlaneBody=0;fillColor=none;collapsible=0;dropTarget=0;points=[[0,0.5],[1,0.5]];portConstraint=eastwest;top=0;left=0;right=0;bottom=0;rounded=1;labelBackgroundColor=none;strokeColor=#BAC8D3;fontColor=#182E3E;" parent="YyWZi0rBc3QcvuE9bfLS-133" vertex="1">
          <mxGeometry y="240" width="270" height="30" as="geometry" />
        </mxCell>
        <mxCell id="YyWZi0rBc3QcvuE9bfLS-153" value="FK" style="shape=partialRectangle;connectable=0;fillColor=none;top=0;left=0;bottom=0;right=0;editable=1;overflow=hidden;whiteSpace=wrap;html=1;rounded=1;labelBackgroundColor=none;strokeColor=#BAC8D3;fontColor=#182E3E;" parent="YyWZi0rBc3QcvuE9bfLS-152" vertex="1">
          <mxGeometry width="30" height="30" as="geometry">
            <mxRectangle width="30" height="30" as="alternateBounds" />
          </mxGeometry>
        </mxCell>
        <mxCell id="YyWZi0rBc3QcvuE9bfLS-154" value="&lt;div&gt;&amp;nbsp; customerNumber numeric(11) NOT NULL&lt;/div&gt;" style="shape=partialRectangle;connectable=0;fillColor=none;top=0;left=0;bottom=0;right=0;align=left;spacingLeft=6;overflow=hidden;whiteSpace=wrap;html=1;rounded=1;labelBackgroundColor=none;strokeColor=#BAC8D3;fontColor=#182E3E;" parent="YyWZi0rBc3QcvuE9bfLS-152" vertex="1">
          <mxGeometry x="30" width="240" height="30" as="geometry">
            <mxRectangle width="240" height="30" as="alternateBounds" />
          </mxGeometry>
        </mxCell>
        <mxCell id="YyWZi0rBc3QcvuE9bfLS-180" value="orderdetails" style="shape=table;startSize=30;container=1;collapsible=1;childLayout=tableLayout;fixedRows=1;rowLines=0;fontStyle=1;align=center;resizeLast=1;html=1;whiteSpace=wrap;rounded=1;swimlaneLine=1;shadow=0;labelBackgroundColor=none;fillColor=#FFCCE6;strokeColor=#FF3333;fontColor=#182E3E;swimlaneFillColor=#33FFFF;strokeWidth=2;gradientColor=#3333FF;gradientDirection=north;" parent="1" vertex="1">
          <mxGeometry x="-200" y="-1400" width="300" height="180" as="geometry" />
        </mxCell>
        <mxCell id="YyWZi0rBc3QcvuE9bfLS-181" value="" style="shape=tableRow;horizontal=0;startSize=0;swimlaneHead=0;swimlaneBody=0;fillColor=none;collapsible=0;dropTarget=0;points=[[0,0.5],[1,0.5]];portConstraint=eastwest;top=0;left=0;right=0;bottom=0;html=1;rounded=1;labelBackgroundColor=none;strokeColor=#BAC8D3;fontColor=#182E3E;" parent="YyWZi0rBc3QcvuE9bfLS-180" vertex="1">
          <mxGeometry y="30" width="300" height="30" as="geometry" />
        </mxCell>
        <mxCell id="YyWZi0rBc3QcvuE9bfLS-182" value="PK,FK1" style="shape=partialRectangle;connectable=0;fillColor=none;top=0;left=0;bottom=0;right=0;fontStyle=1;overflow=hidden;html=1;whiteSpace=wrap;rounded=1;labelBackgroundColor=none;strokeColor=#BAC8D3;fontColor=#182E3E;" parent="YyWZi0rBc3QcvuE9bfLS-181" vertex="1">
          <mxGeometry width="60" height="30" as="geometry">
            <mxRectangle width="60" height="30" as="alternateBounds" />
          </mxGeometry>
        </mxCell>
        <mxCell id="YyWZi0rBc3QcvuE9bfLS-183" value="&amp;nbsp; orderNumber numeric(11) NOT NULL" style="shape=partialRectangle;connectable=0;fillColor=none;top=0;left=0;bottom=0;right=0;align=left;spacingLeft=6;fontStyle=5;overflow=hidden;html=1;whiteSpace=wrap;rounded=1;labelBackgroundColor=none;strokeColor=#BAC8D3;fontColor=#182E3E;" parent="YyWZi0rBc3QcvuE9bfLS-181" vertex="1">
          <mxGeometry x="60" width="240" height="30" as="geometry">
            <mxRectangle width="240" height="30" as="alternateBounds" />
          </mxGeometry>
        </mxCell>
        <mxCell id="YyWZi0rBc3QcvuE9bfLS-184" value="" style="shape=tableRow;horizontal=0;startSize=0;swimlaneHead=0;swimlaneBody=0;fillColor=none;collapsible=0;dropTarget=0;points=[[0,0.5],[1,0.5]];portConstraint=eastwest;top=0;left=0;right=0;bottom=1;html=1;rounded=1;labelBackgroundColor=none;strokeColor=#BAC8D3;fontColor=#182E3E;" parent="YyWZi0rBc3QcvuE9bfLS-180" vertex="1">
          <mxGeometry y="60" width="300" height="30" as="geometry" />
        </mxCell>
        <mxCell id="YyWZi0rBc3QcvuE9bfLS-185" value="PK,FK2" style="shape=partialRectangle;connectable=0;fillColor=none;top=0;left=0;bottom=0;right=0;fontStyle=1;overflow=hidden;html=1;whiteSpace=wrap;rounded=1;labelBackgroundColor=none;strokeColor=#BAC8D3;fontColor=#182E3E;" parent="YyWZi0rBc3QcvuE9bfLS-184" vertex="1">
          <mxGeometry width="60" height="30" as="geometry">
            <mxRectangle width="60" height="30" as="alternateBounds" />
          </mxGeometry>
        </mxCell>
        <mxCell id="YyWZi0rBc3QcvuE9bfLS-186" value="&lt;u style=&quot;border-color: var(--border-color); font-weight: 400;&quot;&gt;&lt;b style=&quot;border-color: var(--border-color);&quot;&gt;&amp;nbsp; productCode varchar(15) NOT NULL&lt;/b&gt;&lt;/u&gt;" style="shape=partialRectangle;connectable=0;fillColor=none;top=0;left=0;bottom=0;right=0;align=left;spacingLeft=6;fontStyle=5;overflow=hidden;html=1;whiteSpace=wrap;rounded=1;labelBackgroundColor=none;strokeColor=#BAC8D3;fontColor=#182E3E;" parent="YyWZi0rBc3QcvuE9bfLS-184" vertex="1">
          <mxGeometry x="60" width="240" height="30" as="geometry">
            <mxRectangle width="240" height="30" as="alternateBounds" />
          </mxGeometry>
        </mxCell>
        <mxCell id="YyWZi0rBc3QcvuE9bfLS-187" value="" style="shape=tableRow;horizontal=0;startSize=0;swimlaneHead=0;swimlaneBody=0;fillColor=none;collapsible=0;dropTarget=0;points=[[0,0.5],[1,0.5]];portConstraint=eastwest;top=0;left=0;right=0;bottom=0;html=1;rounded=1;labelBackgroundColor=none;strokeColor=#BAC8D3;fontColor=#182E3E;" parent="YyWZi0rBc3QcvuE9bfLS-180" vertex="1">
          <mxGeometry y="90" width="300" height="30" as="geometry" />
        </mxCell>
        <mxCell id="YyWZi0rBc3QcvuE9bfLS-188" value="" style="shape=partialRectangle;connectable=0;fillColor=none;top=0;left=0;bottom=0;right=0;editable=1;overflow=hidden;html=1;whiteSpace=wrap;rounded=1;labelBackgroundColor=none;strokeColor=#BAC8D3;fontColor=#182E3E;" parent="YyWZi0rBc3QcvuE9bfLS-187" vertex="1">
          <mxGeometry width="60" height="30" as="geometry">
            <mxRectangle width="60" height="30" as="alternateBounds" />
          </mxGeometry>
        </mxCell>
        <mxCell id="YyWZi0rBc3QcvuE9bfLS-189" value="&amp;nbsp; quantityOrdered numeric(11) NOT NULL" style="shape=partialRectangle;connectable=0;fillColor=none;top=0;left=0;bottom=0;right=0;align=left;spacingLeft=6;overflow=hidden;html=1;whiteSpace=wrap;rounded=1;labelBackgroundColor=none;strokeColor=#BAC8D3;fontColor=#182E3E;" parent="YyWZi0rBc3QcvuE9bfLS-187" vertex="1">
          <mxGeometry x="60" width="240" height="30" as="geometry">
            <mxRectangle width="240" height="30" as="alternateBounds" />
          </mxGeometry>
        </mxCell>
        <mxCell id="YyWZi0rBc3QcvuE9bfLS-190" value="" style="shape=tableRow;horizontal=0;startSize=0;swimlaneHead=0;swimlaneBody=0;fillColor=none;collapsible=0;dropTarget=0;points=[[0,0.5],[1,0.5]];portConstraint=eastwest;top=0;left=0;right=0;bottom=0;html=1;rounded=1;labelBackgroundColor=none;strokeColor=#BAC8D3;fontColor=#182E3E;" parent="YyWZi0rBc3QcvuE9bfLS-180" vertex="1">
          <mxGeometry y="120" width="300" height="30" as="geometry" />
        </mxCell>
        <mxCell id="YyWZi0rBc3QcvuE9bfLS-191" value="" style="shape=partialRectangle;connectable=0;fillColor=none;top=0;left=0;bottom=0;right=0;editable=1;overflow=hidden;html=1;whiteSpace=wrap;rounded=1;labelBackgroundColor=none;strokeColor=#BAC8D3;fontColor=#182E3E;" parent="YyWZi0rBc3QcvuE9bfLS-190" vertex="1">
          <mxGeometry width="60" height="30" as="geometry">
            <mxRectangle width="60" height="30" as="alternateBounds" />
          </mxGeometry>
        </mxCell>
        <mxCell id="YyWZi0rBc3QcvuE9bfLS-192" value="&amp;nbsp; priceEach decimal(10,2) NOT NULL" style="shape=partialRectangle;connectable=0;fillColor=none;top=0;left=0;bottom=0;right=0;align=left;spacingLeft=6;overflow=hidden;html=1;whiteSpace=wrap;rounded=1;labelBackgroundColor=none;strokeColor=#BAC8D3;fontColor=#182E3E;" parent="YyWZi0rBc3QcvuE9bfLS-190" vertex="1">
          <mxGeometry x="60" width="240" height="30" as="geometry">
            <mxRectangle width="240" height="30" as="alternateBounds" />
          </mxGeometry>
        </mxCell>
        <mxCell id="YyWZi0rBc3QcvuE9bfLS-196" value="" style="shape=tableRow;horizontal=0;startSize=0;swimlaneHead=0;swimlaneBody=0;fillColor=none;collapsible=0;dropTarget=0;points=[[0,0.5],[1,0.5]];portConstraint=eastwest;top=0;left=0;right=0;bottom=0;html=1;rounded=1;labelBackgroundColor=none;strokeColor=#BAC8D3;fontColor=#182E3E;" parent="YyWZi0rBc3QcvuE9bfLS-180" vertex="1">
          <mxGeometry y="150" width="300" height="30" as="geometry" />
        </mxCell>
        <mxCell id="YyWZi0rBc3QcvuE9bfLS-197" value="" style="shape=partialRectangle;connectable=0;fillColor=none;top=0;left=0;bottom=0;right=0;editable=1;overflow=hidden;html=1;whiteSpace=wrap;rounded=1;labelBackgroundColor=none;strokeColor=#BAC8D3;fontColor=#182E3E;" parent="YyWZi0rBc3QcvuE9bfLS-196" vertex="1">
          <mxGeometry width="60" height="30" as="geometry">
            <mxRectangle width="60" height="30" as="alternateBounds" />
          </mxGeometry>
        </mxCell>
        <mxCell id="YyWZi0rBc3QcvuE9bfLS-198" value="&amp;nbsp; orderLineNumber numeric(6) NOT NULL" style="shape=partialRectangle;connectable=0;fillColor=none;top=0;left=0;bottom=0;right=0;align=left;spacingLeft=6;overflow=hidden;html=1;whiteSpace=wrap;rounded=1;labelBackgroundColor=none;strokeColor=#BAC8D3;fontColor=#182E3E;" parent="YyWZi0rBc3QcvuE9bfLS-196" vertex="1">
          <mxGeometry x="60" width="240" height="30" as="geometry">
            <mxRectangle width="240" height="30" as="alternateBounds" />
          </mxGeometry>
        </mxCell>
        <mxCell id="YyWZi0rBc3QcvuE9bfLS-202" value="products" style="shape=table;startSize=30;container=1;collapsible=1;childLayout=tableLayout;fixedRows=1;rowLines=0;fontStyle=1;align=center;resizeLast=1;html=1;rounded=1;labelBackgroundColor=none;fillColor=#FFCCE6;strokeColor=#FF3333;fontColor=#182E3E;swimlaneFillColor=#33FFFF;strokeWidth=2;gradientColor=#3333FF;gradientDirection=north;" parent="1" vertex="1">
          <mxGeometry x="-200" y="-1000" width="270" height="330" as="geometry" />
        </mxCell>
        <mxCell id="YyWZi0rBc3QcvuE9bfLS-203" value="" style="shape=tableRow;horizontal=0;startSize=0;swimlaneHead=0;swimlaneBody=0;fillColor=none;collapsible=0;dropTarget=0;points=[[0,0.5],[1,0.5]];portConstraint=eastwest;top=0;left=0;right=0;bottom=1;rounded=1;labelBackgroundColor=none;strokeColor=#BAC8D3;fontColor=#182E3E;" parent="YyWZi0rBc3QcvuE9bfLS-202" vertex="1">
          <mxGeometry y="30" width="270" height="30" as="geometry" />
        </mxCell>
        <mxCell id="YyWZi0rBc3QcvuE9bfLS-204" value="PK" style="shape=partialRectangle;connectable=0;fillColor=none;top=0;left=0;bottom=0;right=0;fontStyle=1;overflow=hidden;whiteSpace=wrap;html=1;rounded=1;labelBackgroundColor=none;strokeColor=#BAC8D3;fontColor=#182E3E;" parent="YyWZi0rBc3QcvuE9bfLS-203" vertex="1">
          <mxGeometry width="30" height="30" as="geometry">
            <mxRectangle width="30" height="30" as="alternateBounds" />
          </mxGeometry>
        </mxCell>
        <mxCell id="YyWZi0rBc3QcvuE9bfLS-205" value="&lt;div&gt;&amp;nbsp; productCode varchar(15) NOT NULL&lt;/div&gt;" style="shape=partialRectangle;connectable=0;fillColor=none;top=0;left=0;bottom=0;right=0;align=left;spacingLeft=6;fontStyle=5;overflow=hidden;whiteSpace=wrap;html=1;rounded=1;labelBackgroundColor=none;strokeColor=#BAC8D3;fontColor=#182E3E;" parent="YyWZi0rBc3QcvuE9bfLS-203" vertex="1">
          <mxGeometry x="30" width="240" height="30" as="geometry">
            <mxRectangle width="240" height="30" as="alternateBounds" />
          </mxGeometry>
        </mxCell>
        <mxCell id="YyWZi0rBc3QcvuE9bfLS-206" value="" style="shape=tableRow;horizontal=0;startSize=0;swimlaneHead=0;swimlaneBody=0;fillColor=none;collapsible=0;dropTarget=0;points=[[0,0.5],[1,0.5]];portConstraint=eastwest;top=0;left=0;right=0;bottom=0;rounded=1;labelBackgroundColor=none;strokeColor=#BAC8D3;fontColor=#182E3E;" parent="YyWZi0rBc3QcvuE9bfLS-202" vertex="1">
          <mxGeometry y="60" width="270" height="30" as="geometry" />
        </mxCell>
        <mxCell id="YyWZi0rBc3QcvuE9bfLS-207" value="" style="shape=partialRectangle;connectable=0;fillColor=none;top=0;left=0;bottom=0;right=0;editable=1;overflow=hidden;whiteSpace=wrap;html=1;rounded=1;labelBackgroundColor=none;strokeColor=#BAC8D3;fontColor=#182E3E;" parent="YyWZi0rBc3QcvuE9bfLS-206" vertex="1">
          <mxGeometry width="30" height="30" as="geometry">
            <mxRectangle width="30" height="30" as="alternateBounds" />
          </mxGeometry>
        </mxCell>
        <mxCell id="YyWZi0rBc3QcvuE9bfLS-208" value="&lt;div&gt;&amp;nbsp; productName varchar(70) NOT NULL&lt;/div&gt;" style="shape=partialRectangle;connectable=0;fillColor=none;top=0;left=0;bottom=0;right=0;align=left;spacingLeft=6;overflow=hidden;whiteSpace=wrap;html=1;rounded=1;labelBackgroundColor=none;strokeColor=#BAC8D3;fontColor=#182E3E;" parent="YyWZi0rBc3QcvuE9bfLS-206" vertex="1">
          <mxGeometry x="30" width="240" height="30" as="geometry">
            <mxRectangle width="240" height="30" as="alternateBounds" />
          </mxGeometry>
        </mxCell>
        <mxCell id="YyWZi0rBc3QcvuE9bfLS-209" value="" style="shape=tableRow;horizontal=0;startSize=0;swimlaneHead=0;swimlaneBody=0;fillColor=none;collapsible=0;dropTarget=0;points=[[0,0.5],[1,0.5]];portConstraint=eastwest;top=0;left=0;right=0;bottom=0;rounded=1;labelBackgroundColor=none;strokeColor=#BAC8D3;fontColor=#182E3E;" parent="YyWZi0rBc3QcvuE9bfLS-202" vertex="1">
          <mxGeometry y="90" width="270" height="30" as="geometry" />
        </mxCell>
        <mxCell id="YyWZi0rBc3QcvuE9bfLS-210" value="FK" style="shape=partialRectangle;connectable=0;fillColor=none;top=0;left=0;bottom=0;right=0;editable=1;overflow=hidden;whiteSpace=wrap;html=1;rounded=1;labelBackgroundColor=none;strokeColor=#BAC8D3;fontColor=#182E3E;" parent="YyWZi0rBc3QcvuE9bfLS-209" vertex="1">
          <mxGeometry width="30" height="30" as="geometry">
            <mxRectangle width="30" height="30" as="alternateBounds" />
          </mxGeometry>
        </mxCell>
        <mxCell id="YyWZi0rBc3QcvuE9bfLS-211" value="&lt;div&gt;&amp;nbsp; productLine varchar(50) NOT NULL&lt;/div&gt;" style="shape=partialRectangle;connectable=0;fillColor=none;top=0;left=0;bottom=0;right=0;align=left;spacingLeft=6;overflow=hidden;whiteSpace=wrap;html=1;rounded=1;labelBackgroundColor=none;strokeColor=#BAC8D3;fontColor=#182E3E;" parent="YyWZi0rBc3QcvuE9bfLS-209" vertex="1">
          <mxGeometry x="30" width="240" height="30" as="geometry">
            <mxRectangle width="240" height="30" as="alternateBounds" />
          </mxGeometry>
        </mxCell>
        <mxCell id="YyWZi0rBc3QcvuE9bfLS-212" value="" style="shape=tableRow;horizontal=0;startSize=0;swimlaneHead=0;swimlaneBody=0;fillColor=none;collapsible=0;dropTarget=0;points=[[0,0.5],[1,0.5]];portConstraint=eastwest;top=0;left=0;right=0;bottom=0;rounded=1;labelBackgroundColor=none;strokeColor=#BAC8D3;fontColor=#182E3E;" parent="YyWZi0rBc3QcvuE9bfLS-202" vertex="1">
          <mxGeometry y="120" width="270" height="30" as="geometry" />
        </mxCell>
        <mxCell id="YyWZi0rBc3QcvuE9bfLS-213" value="" style="shape=partialRectangle;connectable=0;fillColor=none;top=0;left=0;bottom=0;right=0;editable=1;overflow=hidden;whiteSpace=wrap;html=1;rounded=1;labelBackgroundColor=none;strokeColor=#BAC8D3;fontColor=#182E3E;" parent="YyWZi0rBc3QcvuE9bfLS-212" vertex="1">
          <mxGeometry width="30" height="30" as="geometry">
            <mxRectangle width="30" height="30" as="alternateBounds" />
          </mxGeometry>
        </mxCell>
        <mxCell id="YyWZi0rBc3QcvuE9bfLS-214" value="&lt;div&gt;&amp;nbsp; productScale varchar(10) NOT NULL&lt;/div&gt;" style="shape=partialRectangle;connectable=0;fillColor=none;top=0;left=0;bottom=0;right=0;align=left;spacingLeft=6;overflow=hidden;whiteSpace=wrap;html=1;rounded=1;labelBackgroundColor=none;strokeColor=#BAC8D3;fontColor=#182E3E;" parent="YyWZi0rBc3QcvuE9bfLS-212" vertex="1">
          <mxGeometry x="30" width="240" height="30" as="geometry">
            <mxRectangle width="240" height="30" as="alternateBounds" />
          </mxGeometry>
        </mxCell>
        <mxCell id="YyWZi0rBc3QcvuE9bfLS-215" value="" style="shape=tableRow;horizontal=0;startSize=0;swimlaneHead=0;swimlaneBody=0;fillColor=none;collapsible=0;dropTarget=0;points=[[0,0.5],[1,0.5]];portConstraint=eastwest;top=0;left=0;right=0;bottom=0;rounded=1;labelBackgroundColor=none;strokeColor=#BAC8D3;fontColor=#182E3E;" parent="YyWZi0rBc3QcvuE9bfLS-202" vertex="1">
          <mxGeometry y="150" width="270" height="30" as="geometry" />
        </mxCell>
        <mxCell id="YyWZi0rBc3QcvuE9bfLS-216" value="" style="shape=partialRectangle;connectable=0;fillColor=none;top=0;left=0;bottom=0;right=0;editable=1;overflow=hidden;whiteSpace=wrap;html=1;rounded=1;labelBackgroundColor=none;strokeColor=#BAC8D3;fontColor=#182E3E;" parent="YyWZi0rBc3QcvuE9bfLS-215" vertex="1">
          <mxGeometry width="30" height="30" as="geometry">
            <mxRectangle width="30" height="30" as="alternateBounds" />
          </mxGeometry>
        </mxCell>
        <mxCell id="YyWZi0rBc3QcvuE9bfLS-217" value="&lt;div&gt;&amp;nbsp; productVendor varchar(50) NOT NULL&lt;/div&gt;" style="shape=partialRectangle;connectable=0;fillColor=none;top=0;left=0;bottom=0;right=0;align=left;spacingLeft=6;overflow=hidden;whiteSpace=wrap;html=1;rounded=1;labelBackgroundColor=none;strokeColor=#BAC8D3;fontColor=#182E3E;" parent="YyWZi0rBc3QcvuE9bfLS-215" vertex="1">
          <mxGeometry x="30" width="240" height="30" as="geometry">
            <mxRectangle width="240" height="30" as="alternateBounds" />
          </mxGeometry>
        </mxCell>
        <mxCell id="YyWZi0rBc3QcvuE9bfLS-218" value="" style="shape=tableRow;horizontal=0;startSize=0;swimlaneHead=0;swimlaneBody=0;fillColor=none;collapsible=0;dropTarget=0;points=[[0,0.5],[1,0.5]];portConstraint=eastwest;top=0;left=0;right=0;bottom=0;rounded=1;labelBackgroundColor=none;strokeColor=#BAC8D3;fontColor=#182E3E;" parent="YyWZi0rBc3QcvuE9bfLS-202" vertex="1">
          <mxGeometry y="180" width="270" height="30" as="geometry" />
        </mxCell>
        <mxCell id="YyWZi0rBc3QcvuE9bfLS-219" value="" style="shape=partialRectangle;connectable=0;fillColor=none;top=0;left=0;bottom=0;right=0;editable=1;overflow=hidden;whiteSpace=wrap;html=1;rounded=1;labelBackgroundColor=none;strokeColor=#BAC8D3;fontColor=#182E3E;" parent="YyWZi0rBc3QcvuE9bfLS-218" vertex="1">
          <mxGeometry width="30" height="30" as="geometry">
            <mxRectangle width="30" height="30" as="alternateBounds" />
          </mxGeometry>
        </mxCell>
        <mxCell id="YyWZi0rBc3QcvuE9bfLS-220" value="&lt;div&gt;&amp;nbsp; productDescription text NOT NULL&lt;/div&gt;" style="shape=partialRectangle;connectable=0;fillColor=none;top=0;left=0;bottom=0;right=0;align=left;spacingLeft=6;overflow=hidden;whiteSpace=wrap;html=1;rounded=1;labelBackgroundColor=none;strokeColor=#BAC8D3;fontColor=#182E3E;" parent="YyWZi0rBc3QcvuE9bfLS-218" vertex="1">
          <mxGeometry x="30" width="240" height="30" as="geometry">
            <mxRectangle width="240" height="30" as="alternateBounds" />
          </mxGeometry>
        </mxCell>
        <mxCell id="YyWZi0rBc3QcvuE9bfLS-221" value="" style="shape=tableRow;horizontal=0;startSize=0;swimlaneHead=0;swimlaneBody=0;fillColor=none;collapsible=0;dropTarget=0;points=[[0,0.5],[1,0.5]];portConstraint=eastwest;top=0;left=0;right=0;bottom=0;rounded=1;labelBackgroundColor=none;strokeColor=#BAC8D3;fontColor=#182E3E;" parent="YyWZi0rBc3QcvuE9bfLS-202" vertex="1">
          <mxGeometry y="210" width="270" height="30" as="geometry" />
        </mxCell>
        <mxCell id="YyWZi0rBc3QcvuE9bfLS-222" value="" style="shape=partialRectangle;connectable=0;fillColor=none;top=0;left=0;bottom=0;right=0;editable=1;overflow=hidden;whiteSpace=wrap;html=1;rounded=1;labelBackgroundColor=none;strokeColor=#BAC8D3;fontColor=#182E3E;" parent="YyWZi0rBc3QcvuE9bfLS-221" vertex="1">
          <mxGeometry width="30" height="30" as="geometry">
            <mxRectangle width="30" height="30" as="alternateBounds" />
          </mxGeometry>
        </mxCell>
        <mxCell id="YyWZi0rBc3QcvuE9bfLS-223" value="&lt;div&gt;&amp;nbsp; quantityInStock numeric(6) NOT NULL&lt;/div&gt;" style="shape=partialRectangle;connectable=0;fillColor=none;top=0;left=0;bottom=0;right=0;align=left;spacingLeft=6;overflow=hidden;whiteSpace=wrap;html=1;rounded=1;labelBackgroundColor=none;strokeColor=#BAC8D3;fontColor=#182E3E;" parent="YyWZi0rBc3QcvuE9bfLS-221" vertex="1">
          <mxGeometry x="30" width="240" height="30" as="geometry">
            <mxRectangle width="240" height="30" as="alternateBounds" />
          </mxGeometry>
        </mxCell>
        <mxCell id="YyWZi0rBc3QcvuE9bfLS-224" value="" style="shape=tableRow;horizontal=0;startSize=0;swimlaneHead=0;swimlaneBody=0;fillColor=none;collapsible=0;dropTarget=0;points=[[0,0.5],[1,0.5]];portConstraint=eastwest;top=0;left=0;right=0;bottom=0;rounded=1;labelBackgroundColor=none;strokeColor=#BAC8D3;fontColor=#182E3E;" parent="YyWZi0rBc3QcvuE9bfLS-202" vertex="1">
          <mxGeometry y="240" width="270" height="30" as="geometry" />
        </mxCell>
        <mxCell id="YyWZi0rBc3QcvuE9bfLS-225" value="" style="shape=partialRectangle;connectable=0;fillColor=none;top=0;left=0;bottom=0;right=0;editable=1;overflow=hidden;whiteSpace=wrap;html=1;rounded=1;labelBackgroundColor=none;strokeColor=#BAC8D3;fontColor=#182E3E;" parent="YyWZi0rBc3QcvuE9bfLS-224" vertex="1">
          <mxGeometry width="30" height="30" as="geometry">
            <mxRectangle width="30" height="30" as="alternateBounds" />
          </mxGeometry>
        </mxCell>
        <mxCell id="YyWZi0rBc3QcvuE9bfLS-226" value="&lt;div&gt;&amp;nbsp; buyPrice decimal(10,2) NOT NULL&lt;/div&gt;" style="shape=partialRectangle;connectable=0;fillColor=none;top=0;left=0;bottom=0;right=0;align=left;spacingLeft=6;overflow=hidden;whiteSpace=wrap;html=1;rounded=1;labelBackgroundColor=none;strokeColor=#BAC8D3;fontColor=#182E3E;" parent="YyWZi0rBc3QcvuE9bfLS-224" vertex="1">
          <mxGeometry x="30" width="240" height="30" as="geometry">
            <mxRectangle width="240" height="30" as="alternateBounds" />
          </mxGeometry>
        </mxCell>
        <mxCell id="YyWZi0rBc3QcvuE9bfLS-227" value="" style="shape=tableRow;horizontal=0;startSize=0;swimlaneHead=0;swimlaneBody=0;fillColor=none;collapsible=0;dropTarget=0;points=[[0,0.5],[1,0.5]];portConstraint=eastwest;top=0;left=0;right=0;bottom=0;rounded=1;labelBackgroundColor=none;strokeColor=#BAC8D3;fontColor=#182E3E;" parent="YyWZi0rBc3QcvuE9bfLS-202" vertex="1">
          <mxGeometry y="270" width="270" height="30" as="geometry" />
        </mxCell>
        <mxCell id="YyWZi0rBc3QcvuE9bfLS-228" value="" style="shape=partialRectangle;connectable=0;fillColor=none;top=0;left=0;bottom=0;right=0;editable=1;overflow=hidden;whiteSpace=wrap;html=1;rounded=1;labelBackgroundColor=none;strokeColor=#BAC8D3;fontColor=#182E3E;" parent="YyWZi0rBc3QcvuE9bfLS-227" vertex="1">
          <mxGeometry width="30" height="30" as="geometry">
            <mxRectangle width="30" height="30" as="alternateBounds" />
          </mxGeometry>
        </mxCell>
        <mxCell id="YyWZi0rBc3QcvuE9bfLS-229" value="&lt;div&gt;&amp;nbsp; MSRP decimal(10,2) NOT NULL&lt;/div&gt;" style="shape=partialRectangle;connectable=0;fillColor=none;top=0;left=0;bottom=0;right=0;align=left;spacingLeft=6;overflow=hidden;whiteSpace=wrap;html=1;rounded=1;labelBackgroundColor=none;strokeColor=#BAC8D3;fontColor=#182E3E;" parent="YyWZi0rBc3QcvuE9bfLS-227" vertex="1">
          <mxGeometry x="30" width="240" height="30" as="geometry">
            <mxRectangle width="240" height="30" as="alternateBounds" />
          </mxGeometry>
        </mxCell>
        <mxCell id="tZwkwTOCoJ93aJK1QAhf-1" value="" style="shape=tableRow;horizontal=0;startSize=0;swimlaneHead=0;swimlaneBody=0;fillColor=none;collapsible=0;dropTarget=0;points=[[0,0.5],[1,0.5]];portConstraint=eastwest;top=0;left=0;right=0;bottom=0;rounded=1;labelBackgroundColor=none;strokeColor=#BAC8D3;fontColor=#182E3E;" parent="YyWZi0rBc3QcvuE9bfLS-202" vertex="1">
          <mxGeometry y="300" width="270" height="30" as="geometry" />
        </mxCell>
        <mxCell id="tZwkwTOCoJ93aJK1QAhf-2" value="FK3" style="shape=partialRectangle;connectable=0;fillColor=none;top=0;left=0;bottom=0;right=0;editable=1;overflow=hidden;whiteSpace=wrap;html=1;rounded=1;labelBackgroundColor=none;strokeColor=#BAC8D3;fontColor=#182E3E;" parent="tZwkwTOCoJ93aJK1QAhf-1" vertex="1">
          <mxGeometry width="30" height="30" as="geometry">
            <mxRectangle width="30" height="30" as="alternateBounds" />
          </mxGeometry>
        </mxCell>
        <mxCell id="tZwkwTOCoJ93aJK1QAhf-3" value="&amp;nbsp; discountCode varchar(15)" style="shape=partialRectangle;connectable=0;fillColor=none;top=0;left=0;bottom=0;right=0;align=left;spacingLeft=6;overflow=hidden;whiteSpace=wrap;html=1;rounded=1;labelBackgroundColor=none;strokeColor=#BAC8D3;fontColor=#182E3E;" parent="tZwkwTOCoJ93aJK1QAhf-1" vertex="1">
          <mxGeometry x="30" width="240" height="30" as="geometry">
            <mxRectangle width="240" height="30" as="alternateBounds" />
          </mxGeometry>
        </mxCell>
        <mxCell id="YyWZi0rBc3QcvuE9bfLS-230" value="productlines" style="shape=table;startSize=30;container=1;collapsible=1;childLayout=tableLayout;fixedRows=1;rowLines=0;fontStyle=1;align=center;resizeLast=1;html=1;rounded=1;labelBackgroundColor=none;fillColor=#FFCCE6;strokeColor=#FF3333;fontColor=#182E3E;swimlaneFillColor=#33FFFF;strokeWidth=2;gradientColor=#3333FF;gradientDirection=north;" parent="1" vertex="1">
          <mxGeometry x="-710" y="-940" width="300" height="150" as="geometry" />
        </mxCell>
        <mxCell id="YyWZi0rBc3QcvuE9bfLS-231" value="" style="shape=tableRow;horizontal=0;startSize=0;swimlaneHead=0;swimlaneBody=0;fillColor=none;collapsible=0;dropTarget=0;points=[[0,0.5],[1,0.5]];portConstraint=eastwest;top=0;left=0;right=0;bottom=1;rounded=1;labelBackgroundColor=none;strokeColor=#BAC8D3;fontColor=#182E3E;" parent="YyWZi0rBc3QcvuE9bfLS-230" vertex="1">
          <mxGeometry y="30" width="300" height="30" as="geometry" />
        </mxCell>
        <mxCell id="YyWZi0rBc3QcvuE9bfLS-232" value="PK" style="shape=partialRectangle;connectable=0;fillColor=none;top=0;left=0;bottom=0;right=0;fontStyle=1;overflow=hidden;whiteSpace=wrap;html=1;rounded=1;labelBackgroundColor=none;strokeColor=#BAC8D3;fontColor=#182E3E;" parent="YyWZi0rBc3QcvuE9bfLS-231" vertex="1">
          <mxGeometry width="30" height="30" as="geometry">
            <mxRectangle width="30" height="30" as="alternateBounds" />
          </mxGeometry>
        </mxCell>
        <mxCell id="YyWZi0rBc3QcvuE9bfLS-233" value="&lt;div&gt;&amp;nbsp; productLine varchar(50) NOT NULL&lt;/div&gt;" style="shape=partialRectangle;connectable=0;fillColor=none;top=0;left=0;bottom=0;right=0;align=left;spacingLeft=6;fontStyle=5;overflow=hidden;whiteSpace=wrap;html=1;rounded=1;labelBackgroundColor=none;strokeColor=#BAC8D3;fontColor=#182E3E;" parent="YyWZi0rBc3QcvuE9bfLS-231" vertex="1">
          <mxGeometry x="30" width="270" height="30" as="geometry">
            <mxRectangle width="270" height="30" as="alternateBounds" />
          </mxGeometry>
        </mxCell>
        <mxCell id="YyWZi0rBc3QcvuE9bfLS-234" value="" style="shape=tableRow;horizontal=0;startSize=0;swimlaneHead=0;swimlaneBody=0;fillColor=none;collapsible=0;dropTarget=0;points=[[0,0.5],[1,0.5]];portConstraint=eastwest;top=0;left=0;right=0;bottom=0;rounded=1;labelBackgroundColor=none;strokeColor=#BAC8D3;fontColor=#182E3E;" parent="YyWZi0rBc3QcvuE9bfLS-230" vertex="1">
          <mxGeometry y="60" width="300" height="30" as="geometry" />
        </mxCell>
        <mxCell id="YyWZi0rBc3QcvuE9bfLS-235" value="" style="shape=partialRectangle;connectable=0;fillColor=none;top=0;left=0;bottom=0;right=0;editable=1;overflow=hidden;whiteSpace=wrap;html=1;rounded=1;labelBackgroundColor=none;strokeColor=#BAC8D3;fontColor=#182E3E;" parent="YyWZi0rBc3QcvuE9bfLS-234" vertex="1">
          <mxGeometry width="30" height="30" as="geometry">
            <mxRectangle width="30" height="30" as="alternateBounds" />
          </mxGeometry>
        </mxCell>
        <mxCell id="YyWZi0rBc3QcvuE9bfLS-236" value="&lt;div&gt;&amp;nbsp; textDescription varchar(4000) DEFAULT NULL&lt;/div&gt;" style="shape=partialRectangle;connectable=0;fillColor=none;top=0;left=0;bottom=0;right=0;align=left;spacingLeft=6;overflow=hidden;whiteSpace=wrap;html=1;rounded=1;labelBackgroundColor=none;strokeColor=#BAC8D3;fontColor=#182E3E;" parent="YyWZi0rBc3QcvuE9bfLS-234" vertex="1">
          <mxGeometry x="30" width="270" height="30" as="geometry">
            <mxRectangle width="270" height="30" as="alternateBounds" />
          </mxGeometry>
        </mxCell>
        <mxCell id="YyWZi0rBc3QcvuE9bfLS-237" value="" style="shape=tableRow;horizontal=0;startSize=0;swimlaneHead=0;swimlaneBody=0;fillColor=none;collapsible=0;dropTarget=0;points=[[0,0.5],[1,0.5]];portConstraint=eastwest;top=0;left=0;right=0;bottom=0;rounded=1;labelBackgroundColor=none;strokeColor=#BAC8D3;fontColor=#182E3E;" parent="YyWZi0rBc3QcvuE9bfLS-230" vertex="1">
          <mxGeometry y="90" width="300" height="30" as="geometry" />
        </mxCell>
        <mxCell id="YyWZi0rBc3QcvuE9bfLS-238" value="" style="shape=partialRectangle;connectable=0;fillColor=none;top=0;left=0;bottom=0;right=0;editable=1;overflow=hidden;whiteSpace=wrap;html=1;rounded=1;labelBackgroundColor=none;strokeColor=#BAC8D3;fontColor=#182E3E;" parent="YyWZi0rBc3QcvuE9bfLS-237" vertex="1">
          <mxGeometry width="30" height="30" as="geometry">
            <mxRectangle width="30" height="30" as="alternateBounds" />
          </mxGeometry>
        </mxCell>
        <mxCell id="YyWZi0rBc3QcvuE9bfLS-239" value="&lt;div&gt;&amp;nbsp; htmlDescription text&lt;/div&gt;" style="shape=partialRectangle;connectable=0;fillColor=none;top=0;left=0;bottom=0;right=0;align=left;spacingLeft=6;overflow=hidden;whiteSpace=wrap;html=1;rounded=1;labelBackgroundColor=none;strokeColor=#BAC8D3;fontColor=#182E3E;" parent="YyWZi0rBc3QcvuE9bfLS-237" vertex="1">
          <mxGeometry x="30" width="270" height="30" as="geometry">
            <mxRectangle width="270" height="30" as="alternateBounds" />
          </mxGeometry>
        </mxCell>
        <mxCell id="YyWZi0rBc3QcvuE9bfLS-240" value="" style="shape=tableRow;horizontal=0;startSize=0;swimlaneHead=0;swimlaneBody=0;fillColor=none;collapsible=0;dropTarget=0;points=[[0,0.5],[1,0.5]];portConstraint=eastwest;top=0;left=0;right=0;bottom=0;rounded=1;labelBackgroundColor=none;strokeColor=#BAC8D3;fontColor=#182E3E;" parent="YyWZi0rBc3QcvuE9bfLS-230" vertex="1">
          <mxGeometry y="120" width="300" height="30" as="geometry" />
        </mxCell>
        <mxCell id="YyWZi0rBc3QcvuE9bfLS-241" value="" style="shape=partialRectangle;connectable=0;fillColor=none;top=0;left=0;bottom=0;right=0;editable=1;overflow=hidden;whiteSpace=wrap;html=1;rounded=1;labelBackgroundColor=none;strokeColor=#BAC8D3;fontColor=#182E3E;" parent="YyWZi0rBc3QcvuE9bfLS-240" vertex="1">
          <mxGeometry width="30" height="30" as="geometry">
            <mxRectangle width="30" height="30" as="alternateBounds" />
          </mxGeometry>
        </mxCell>
        <mxCell id="YyWZi0rBc3QcvuE9bfLS-242" value="&lt;div&gt;&amp;nbsp; image BYTEA&amp;nbsp;&lt;/div&gt;" style="shape=partialRectangle;connectable=0;fillColor=none;top=0;left=0;bottom=0;right=0;align=left;spacingLeft=6;overflow=hidden;whiteSpace=wrap;html=1;rounded=1;labelBackgroundColor=none;strokeColor=#BAC8D3;fontColor=#182E3E;" parent="YyWZi0rBc3QcvuE9bfLS-240" vertex="1">
          <mxGeometry x="30" width="270" height="30" as="geometry">
            <mxRectangle width="270" height="30" as="alternateBounds" />
          </mxGeometry>
        </mxCell>
        <mxCell id="YyWZi0rBc3QcvuE9bfLS-243" value="employees" style="shape=table;startSize=30;container=1;collapsible=1;childLayout=tableLayout;fixedRows=1;rowLines=0;fontStyle=1;align=center;resizeLast=1;html=1;rounded=1;labelBackgroundColor=none;fillColor=#FFCCE6;strokeColor=#FF3333;fontColor=#182E3E;swimlaneFillColor=#33FFFF;strokeWidth=2;gradientColor=#3333FF;gradientDirection=north;" parent="1" vertex="1">
          <mxGeometry x="-1240" y="-835" width="290" height="240" as="geometry" />
        </mxCell>
        <mxCell id="YyWZi0rBc3QcvuE9bfLS-244" value="" style="shape=tableRow;horizontal=0;startSize=0;swimlaneHead=0;swimlaneBody=0;fillColor=none;collapsible=0;dropTarget=0;points=[[0,0.5],[1,0.5]];portConstraint=eastwest;top=0;left=0;right=0;bottom=1;rounded=1;labelBackgroundColor=none;strokeColor=#BAC8D3;fontColor=#182E3E;" parent="YyWZi0rBc3QcvuE9bfLS-243" vertex="1">
          <mxGeometry y="30" width="290" height="30" as="geometry" />
        </mxCell>
        <mxCell id="YyWZi0rBc3QcvuE9bfLS-245" value="PK" style="shape=partialRectangle;connectable=0;fillColor=none;top=0;left=0;bottom=0;right=0;fontStyle=1;overflow=hidden;whiteSpace=wrap;html=1;rounded=1;labelBackgroundColor=none;strokeColor=#BAC8D3;fontColor=#182E3E;" parent="YyWZi0rBc3QcvuE9bfLS-244" vertex="1">
          <mxGeometry width="30" height="30" as="geometry">
            <mxRectangle width="30" height="30" as="alternateBounds" />
          </mxGeometry>
        </mxCell>
        <mxCell id="YyWZi0rBc3QcvuE9bfLS-246" value="&lt;div&gt;&amp;nbsp; employeeNumber numeric(11) NOT NULL&lt;/div&gt;" style="shape=partialRectangle;connectable=0;fillColor=none;top=0;left=0;bottom=0;right=0;align=left;spacingLeft=6;fontStyle=5;overflow=hidden;whiteSpace=wrap;html=1;rounded=1;labelBackgroundColor=none;strokeColor=#BAC8D3;fontColor=#182E3E;" parent="YyWZi0rBc3QcvuE9bfLS-244" vertex="1">
          <mxGeometry x="30" width="260" height="30" as="geometry">
            <mxRectangle width="260" height="30" as="alternateBounds" />
          </mxGeometry>
        </mxCell>
        <mxCell id="YyWZi0rBc3QcvuE9bfLS-247" value="" style="shape=tableRow;horizontal=0;startSize=0;swimlaneHead=0;swimlaneBody=0;fillColor=none;collapsible=0;dropTarget=0;points=[[0,0.5],[1,0.5]];portConstraint=eastwest;top=0;left=0;right=0;bottom=0;rounded=1;labelBackgroundColor=none;strokeColor=#BAC8D3;fontColor=#182E3E;" parent="YyWZi0rBc3QcvuE9bfLS-243" vertex="1">
          <mxGeometry y="60" width="290" height="30" as="geometry" />
        </mxCell>
        <mxCell id="YyWZi0rBc3QcvuE9bfLS-248" value="" style="shape=partialRectangle;connectable=0;fillColor=none;top=0;left=0;bottom=0;right=0;editable=1;overflow=hidden;whiteSpace=wrap;html=1;rounded=1;labelBackgroundColor=none;strokeColor=#BAC8D3;fontColor=#182E3E;" parent="YyWZi0rBc3QcvuE9bfLS-247" vertex="1">
          <mxGeometry width="30" height="30" as="geometry">
            <mxRectangle width="30" height="30" as="alternateBounds" />
          </mxGeometry>
        </mxCell>
        <mxCell id="YyWZi0rBc3QcvuE9bfLS-249" value="&lt;div&gt;&amp;nbsp; lastName varchar(50) NOT NULL&lt;/div&gt;" style="shape=partialRectangle;connectable=0;fillColor=none;top=0;left=0;bottom=0;right=0;align=left;spacingLeft=6;overflow=hidden;whiteSpace=wrap;html=1;rounded=1;labelBackgroundColor=none;strokeColor=#BAC8D3;fontColor=#182E3E;" parent="YyWZi0rBc3QcvuE9bfLS-247" vertex="1">
          <mxGeometry x="30" width="260" height="30" as="geometry">
            <mxRectangle width="260" height="30" as="alternateBounds" />
          </mxGeometry>
        </mxCell>
        <mxCell id="YyWZi0rBc3QcvuE9bfLS-250" value="" style="shape=tableRow;horizontal=0;startSize=0;swimlaneHead=0;swimlaneBody=0;fillColor=none;collapsible=0;dropTarget=0;points=[[0,0.5],[1,0.5]];portConstraint=eastwest;top=0;left=0;right=0;bottom=0;rounded=1;labelBackgroundColor=none;strokeColor=#BAC8D3;fontColor=#182E3E;" parent="YyWZi0rBc3QcvuE9bfLS-243" vertex="1">
          <mxGeometry y="90" width="290" height="30" as="geometry" />
        </mxCell>
        <mxCell id="YyWZi0rBc3QcvuE9bfLS-251" value="" style="shape=partialRectangle;connectable=0;fillColor=none;top=0;left=0;bottom=0;right=0;editable=1;overflow=hidden;whiteSpace=wrap;html=1;rounded=1;labelBackgroundColor=none;strokeColor=#BAC8D3;fontColor=#182E3E;" parent="YyWZi0rBc3QcvuE9bfLS-250" vertex="1">
          <mxGeometry width="30" height="30" as="geometry">
            <mxRectangle width="30" height="30" as="alternateBounds" />
          </mxGeometry>
        </mxCell>
        <mxCell id="YyWZi0rBc3QcvuE9bfLS-252" value="&lt;div&gt;&amp;nbsp; firstName varchar(50) NOT NULL&lt;/div&gt;" style="shape=partialRectangle;connectable=0;fillColor=none;top=0;left=0;bottom=0;right=0;align=left;spacingLeft=6;overflow=hidden;whiteSpace=wrap;html=1;rounded=1;labelBackgroundColor=none;strokeColor=#BAC8D3;fontColor=#182E3E;" parent="YyWZi0rBc3QcvuE9bfLS-250" vertex="1">
          <mxGeometry x="30" width="260" height="30" as="geometry">
            <mxRectangle width="260" height="30" as="alternateBounds" />
          </mxGeometry>
        </mxCell>
        <mxCell id="YyWZi0rBc3QcvuE9bfLS-253" value="" style="shape=tableRow;horizontal=0;startSize=0;swimlaneHead=0;swimlaneBody=0;fillColor=none;collapsible=0;dropTarget=0;points=[[0,0.5],[1,0.5]];portConstraint=eastwest;top=0;left=0;right=0;bottom=0;rounded=1;labelBackgroundColor=none;strokeColor=#BAC8D3;fontColor=#182E3E;" parent="YyWZi0rBc3QcvuE9bfLS-243" vertex="1">
          <mxGeometry y="120" width="290" height="30" as="geometry" />
        </mxCell>
        <mxCell id="YyWZi0rBc3QcvuE9bfLS-254" value="" style="shape=partialRectangle;connectable=0;fillColor=none;top=0;left=0;bottom=0;right=0;editable=1;overflow=hidden;whiteSpace=wrap;html=1;rounded=1;labelBackgroundColor=none;strokeColor=#BAC8D3;fontColor=#182E3E;" parent="YyWZi0rBc3QcvuE9bfLS-253" vertex="1">
          <mxGeometry width="30" height="30" as="geometry">
            <mxRectangle width="30" height="30" as="alternateBounds" />
          </mxGeometry>
        </mxCell>
        <mxCell id="YyWZi0rBc3QcvuE9bfLS-255" value="&lt;div&gt;&amp;nbsp; email varchar(100) NOT NULL&lt;/div&gt;" style="shape=partialRectangle;connectable=0;fillColor=none;top=0;left=0;bottom=0;right=0;align=left;spacingLeft=6;overflow=hidden;whiteSpace=wrap;html=1;rounded=1;labelBackgroundColor=none;strokeColor=#BAC8D3;fontColor=#182E3E;" parent="YyWZi0rBc3QcvuE9bfLS-253" vertex="1">
          <mxGeometry x="30" width="260" height="30" as="geometry">
            <mxRectangle width="260" height="30" as="alternateBounds" />
          </mxGeometry>
        </mxCell>
        <mxCell id="YyWZi0rBc3QcvuE9bfLS-256" value="" style="shape=tableRow;horizontal=0;startSize=0;swimlaneHead=0;swimlaneBody=0;fillColor=none;collapsible=0;dropTarget=0;points=[[0,0.5],[1,0.5]];portConstraint=eastwest;top=0;left=0;right=0;bottom=0;rounded=1;labelBackgroundColor=none;strokeColor=#BAC8D3;fontColor=#182E3E;" parent="YyWZi0rBc3QcvuE9bfLS-243" vertex="1">
          <mxGeometry y="150" width="290" height="30" as="geometry" />
        </mxCell>
        <mxCell id="YyWZi0rBc3QcvuE9bfLS-257" value="FK1" style="shape=partialRectangle;connectable=0;fillColor=none;top=0;left=0;bottom=0;right=0;editable=1;overflow=hidden;whiteSpace=wrap;html=1;rounded=1;labelBackgroundColor=none;strokeColor=#BAC8D3;fontColor=#182E3E;" parent="YyWZi0rBc3QcvuE9bfLS-256" vertex="1">
          <mxGeometry width="30" height="30" as="geometry">
            <mxRectangle width="30" height="30" as="alternateBounds" />
          </mxGeometry>
        </mxCell>
        <mxCell id="YyWZi0rBc3QcvuE9bfLS-258" value="&lt;div&gt;&amp;nbsp; officeCode varchar(10) NOT NULL&lt;/div&gt;" style="shape=partialRectangle;connectable=0;fillColor=none;top=0;left=0;bottom=0;right=0;align=left;spacingLeft=6;overflow=hidden;whiteSpace=wrap;html=1;rounded=1;labelBackgroundColor=none;strokeColor=#BAC8D3;fontColor=#182E3E;" parent="YyWZi0rBc3QcvuE9bfLS-256" vertex="1">
          <mxGeometry x="30" width="260" height="30" as="geometry">
            <mxRectangle width="260" height="30" as="alternateBounds" />
          </mxGeometry>
        </mxCell>
        <mxCell id="YyWZi0rBc3QcvuE9bfLS-259" value="" style="shape=tableRow;horizontal=0;startSize=0;swimlaneHead=0;swimlaneBody=0;fillColor=none;collapsible=0;dropTarget=0;points=[[0,0.5],[1,0.5]];portConstraint=eastwest;top=0;left=0;right=0;bottom=0;rounded=1;labelBackgroundColor=none;strokeColor=#BAC8D3;fontColor=#182E3E;" parent="YyWZi0rBc3QcvuE9bfLS-243" vertex="1">
          <mxGeometry y="180" width="290" height="30" as="geometry" />
        </mxCell>
        <mxCell id="YyWZi0rBc3QcvuE9bfLS-260" value="FK2" style="shape=partialRectangle;connectable=0;fillColor=none;top=0;left=0;bottom=0;right=0;editable=1;overflow=hidden;whiteSpace=wrap;html=1;rounded=1;labelBackgroundColor=none;strokeColor=#BAC8D3;fontColor=#182E3E;" parent="YyWZi0rBc3QcvuE9bfLS-259" vertex="1">
          <mxGeometry width="30" height="30" as="geometry">
            <mxRectangle width="30" height="30" as="alternateBounds" />
          </mxGeometry>
        </mxCell>
        <mxCell id="YyWZi0rBc3QcvuE9bfLS-261" value="&lt;div&gt;&amp;nbsp; reportsTo numeric(11) DEFAULT NULL&lt;/div&gt;" style="shape=partialRectangle;connectable=0;fillColor=none;top=0;left=0;bottom=0;right=0;align=left;spacingLeft=6;overflow=hidden;whiteSpace=wrap;html=1;rounded=1;labelBackgroundColor=none;strokeColor=#BAC8D3;fontColor=#182E3E;" parent="YyWZi0rBc3QcvuE9bfLS-259" vertex="1">
          <mxGeometry x="30" width="260" height="30" as="geometry">
            <mxRectangle width="260" height="30" as="alternateBounds" />
          </mxGeometry>
        </mxCell>
        <mxCell id="YyWZi0rBc3QcvuE9bfLS-262" value="" style="shape=tableRow;horizontal=0;startSize=0;swimlaneHead=0;swimlaneBody=0;fillColor=none;collapsible=0;dropTarget=0;points=[[0,0.5],[1,0.5]];portConstraint=eastwest;top=0;left=0;right=0;bottom=0;rounded=1;labelBackgroundColor=none;strokeColor=#BAC8D3;fontColor=#182E3E;" parent="YyWZi0rBc3QcvuE9bfLS-243" vertex="1">
          <mxGeometry y="210" width="290" height="30" as="geometry" />
        </mxCell>
        <mxCell id="YyWZi0rBc3QcvuE9bfLS-263" value="" style="shape=partialRectangle;connectable=0;fillColor=none;top=0;left=0;bottom=0;right=0;editable=1;overflow=hidden;whiteSpace=wrap;html=1;rounded=1;labelBackgroundColor=none;strokeColor=#BAC8D3;fontColor=#182E3E;" parent="YyWZi0rBc3QcvuE9bfLS-262" vertex="1">
          <mxGeometry width="30" height="30" as="geometry">
            <mxRectangle width="30" height="30" as="alternateBounds" />
          </mxGeometry>
        </mxCell>
        <mxCell id="YyWZi0rBc3QcvuE9bfLS-264" value="&lt;div&gt;&amp;nbsp; jobTitle varchar(50) NOT NULL&lt;/div&gt;" style="shape=partialRectangle;connectable=0;fillColor=none;top=0;left=0;bottom=0;right=0;align=left;spacingLeft=6;overflow=hidden;whiteSpace=wrap;html=1;rounded=1;labelBackgroundColor=none;strokeColor=#BAC8D3;fontColor=#182E3E;" parent="YyWZi0rBc3QcvuE9bfLS-262" vertex="1">
          <mxGeometry x="30" width="260" height="30" as="geometry">
            <mxRectangle width="260" height="30" as="alternateBounds" />
          </mxGeometry>
        </mxCell>
        <mxCell id="YyWZi0rBc3QcvuE9bfLS-268" value="offices" style="shape=table;startSize=30;container=1;collapsible=1;childLayout=tableLayout;fixedRows=1;rowLines=0;fontStyle=1;align=center;resizeLast=1;html=1;rounded=1;labelBackgroundColor=none;fillColor=#FFCCE6;strokeColor=#FF3333;fontColor=#182E3E;swimlaneFillColor=#33FFFF;strokeWidth=2;gradientColor=#3333FF;gradientDirection=north;" parent="1" vertex="1">
          <mxGeometry x="-1240" y="-440" width="250" height="270" as="geometry" />
        </mxCell>
        <mxCell id="YyWZi0rBc3QcvuE9bfLS-269" value="" style="shape=tableRow;horizontal=0;startSize=0;swimlaneHead=0;swimlaneBody=0;fillColor=none;collapsible=0;dropTarget=0;points=[[0,0.5],[1,0.5]];portConstraint=eastwest;top=0;left=0;right=0;bottom=1;rounded=1;labelBackgroundColor=none;strokeColor=#BAC8D3;fontColor=#182E3E;" parent="YyWZi0rBc3QcvuE9bfLS-268" vertex="1">
          <mxGeometry y="30" width="250" height="30" as="geometry" />
        </mxCell>
        <mxCell id="YyWZi0rBc3QcvuE9bfLS-270" value="PK" style="shape=partialRectangle;connectable=0;fillColor=none;top=0;left=0;bottom=0;right=0;fontStyle=1;overflow=hidden;whiteSpace=wrap;html=1;rounded=1;labelBackgroundColor=none;strokeColor=#BAC8D3;fontColor=#182E3E;" parent="YyWZi0rBc3QcvuE9bfLS-269" vertex="1">
          <mxGeometry width="30" height="30" as="geometry">
            <mxRectangle width="30" height="30" as="alternateBounds" />
          </mxGeometry>
        </mxCell>
        <mxCell id="YyWZi0rBc3QcvuE9bfLS-271" value="&lt;div&gt;&amp;nbsp; officeCode varchar(10) NOT NULL&lt;/div&gt;" style="shape=partialRectangle;connectable=0;fillColor=none;top=0;left=0;bottom=0;right=0;align=left;spacingLeft=6;fontStyle=5;overflow=hidden;whiteSpace=wrap;html=1;rounded=1;labelBackgroundColor=none;strokeColor=#BAC8D3;fontColor=#182E3E;" parent="YyWZi0rBc3QcvuE9bfLS-269" vertex="1">
          <mxGeometry x="30" width="220" height="30" as="geometry">
            <mxRectangle width="220" height="30" as="alternateBounds" />
          </mxGeometry>
        </mxCell>
        <mxCell id="YyWZi0rBc3QcvuE9bfLS-272" value="" style="shape=tableRow;horizontal=0;startSize=0;swimlaneHead=0;swimlaneBody=0;fillColor=none;collapsible=0;dropTarget=0;points=[[0,0.5],[1,0.5]];portConstraint=eastwest;top=0;left=0;right=0;bottom=0;rounded=1;labelBackgroundColor=none;strokeColor=#BAC8D3;fontColor=#182E3E;" parent="YyWZi0rBc3QcvuE9bfLS-268" vertex="1">
          <mxGeometry y="60" width="250" height="30" as="geometry" />
        </mxCell>
        <mxCell id="YyWZi0rBc3QcvuE9bfLS-273" value="" style="shape=partialRectangle;connectable=0;fillColor=none;top=0;left=0;bottom=0;right=0;editable=1;overflow=hidden;whiteSpace=wrap;html=1;rounded=1;labelBackgroundColor=none;strokeColor=#BAC8D3;fontColor=#182E3E;" parent="YyWZi0rBc3QcvuE9bfLS-272" vertex="1">
          <mxGeometry width="30" height="30" as="geometry">
            <mxRectangle width="30" height="30" as="alternateBounds" />
          </mxGeometry>
        </mxCell>
        <mxCell id="YyWZi0rBc3QcvuE9bfLS-274" value="&lt;div&gt;&amp;nbsp; city varchar(50) NOT NULL&lt;/div&gt;" style="shape=partialRectangle;connectable=0;fillColor=none;top=0;left=0;bottom=0;right=0;align=left;spacingLeft=6;overflow=hidden;whiteSpace=wrap;html=1;rounded=1;labelBackgroundColor=none;strokeColor=#BAC8D3;fontColor=#182E3E;" parent="YyWZi0rBc3QcvuE9bfLS-272" vertex="1">
          <mxGeometry x="30" width="220" height="30" as="geometry">
            <mxRectangle width="220" height="30" as="alternateBounds" />
          </mxGeometry>
        </mxCell>
        <mxCell id="YyWZi0rBc3QcvuE9bfLS-275" value="" style="shape=tableRow;horizontal=0;startSize=0;swimlaneHead=0;swimlaneBody=0;fillColor=none;collapsible=0;dropTarget=0;points=[[0,0.5],[1,0.5]];portConstraint=eastwest;top=0;left=0;right=0;bottom=0;rounded=1;labelBackgroundColor=none;strokeColor=#BAC8D3;fontColor=#182E3E;" parent="YyWZi0rBc3QcvuE9bfLS-268" vertex="1">
          <mxGeometry y="90" width="250" height="30" as="geometry" />
        </mxCell>
        <mxCell id="YyWZi0rBc3QcvuE9bfLS-276" value="" style="shape=partialRectangle;connectable=0;fillColor=none;top=0;left=0;bottom=0;right=0;editable=1;overflow=hidden;whiteSpace=wrap;html=1;rounded=1;labelBackgroundColor=none;strokeColor=#BAC8D3;fontColor=#182E3E;" parent="YyWZi0rBc3QcvuE9bfLS-275" vertex="1">
          <mxGeometry width="30" height="30" as="geometry">
            <mxRectangle width="30" height="30" as="alternateBounds" />
          </mxGeometry>
        </mxCell>
        <mxCell id="YyWZi0rBc3QcvuE9bfLS-277" value="&lt;div&gt;&amp;nbsp; phone varchar(50) NOT NULL&lt;/div&gt;" style="shape=partialRectangle;connectable=0;fillColor=none;top=0;left=0;bottom=0;right=0;align=left;spacingLeft=6;overflow=hidden;whiteSpace=wrap;html=1;rounded=1;labelBackgroundColor=none;strokeColor=#BAC8D3;fontColor=#182E3E;" parent="YyWZi0rBc3QcvuE9bfLS-275" vertex="1">
          <mxGeometry x="30" width="220" height="30" as="geometry">
            <mxRectangle width="220" height="30" as="alternateBounds" />
          </mxGeometry>
        </mxCell>
        <mxCell id="YyWZi0rBc3QcvuE9bfLS-278" value="" style="shape=tableRow;horizontal=0;startSize=0;swimlaneHead=0;swimlaneBody=0;fillColor=none;collapsible=0;dropTarget=0;points=[[0,0.5],[1,0.5]];portConstraint=eastwest;top=0;left=0;right=0;bottom=0;rounded=1;labelBackgroundColor=none;strokeColor=#BAC8D3;fontColor=#182E3E;" parent="YyWZi0rBc3QcvuE9bfLS-268" vertex="1">
          <mxGeometry y="120" width="250" height="30" as="geometry" />
        </mxCell>
        <mxCell id="YyWZi0rBc3QcvuE9bfLS-279" value="" style="shape=partialRectangle;connectable=0;fillColor=none;top=0;left=0;bottom=0;right=0;editable=1;overflow=hidden;whiteSpace=wrap;html=1;rounded=1;labelBackgroundColor=none;strokeColor=#BAC8D3;fontColor=#182E3E;" parent="YyWZi0rBc3QcvuE9bfLS-278" vertex="1">
          <mxGeometry width="30" height="30" as="geometry">
            <mxRectangle width="30" height="30" as="alternateBounds" />
          </mxGeometry>
        </mxCell>
        <mxCell id="YyWZi0rBc3QcvuE9bfLS-280" value="&lt;div&gt;&amp;nbsp; addressLine varchar(50) NOT NULL&lt;/div&gt;" style="shape=partialRectangle;connectable=0;fillColor=none;top=0;left=0;bottom=0;right=0;align=left;spacingLeft=6;overflow=hidden;whiteSpace=wrap;html=1;rounded=1;labelBackgroundColor=none;strokeColor=#BAC8D3;fontColor=#182E3E;" parent="YyWZi0rBc3QcvuE9bfLS-278" vertex="1">
          <mxGeometry x="30" width="220" height="30" as="geometry">
            <mxRectangle width="220" height="30" as="alternateBounds" />
          </mxGeometry>
        </mxCell>
        <mxCell id="YyWZi0rBc3QcvuE9bfLS-281" value="" style="shape=tableRow;horizontal=0;startSize=0;swimlaneHead=0;swimlaneBody=0;fillColor=none;collapsible=0;dropTarget=0;points=[[0,0.5],[1,0.5]];portConstraint=eastwest;top=0;left=0;right=0;bottom=0;rounded=1;labelBackgroundColor=none;strokeColor=#BAC8D3;fontColor=#182E3E;" parent="YyWZi0rBc3QcvuE9bfLS-268" vertex="1">
          <mxGeometry y="150" width="250" height="30" as="geometry" />
        </mxCell>
        <mxCell id="YyWZi0rBc3QcvuE9bfLS-282" value="" style="shape=partialRectangle;connectable=0;fillColor=none;top=0;left=0;bottom=0;right=0;editable=1;overflow=hidden;whiteSpace=wrap;html=1;rounded=1;labelBackgroundColor=none;strokeColor=#BAC8D3;fontColor=#182E3E;" parent="YyWZi0rBc3QcvuE9bfLS-281" vertex="1">
          <mxGeometry width="30" height="30" as="geometry">
            <mxRectangle width="30" height="30" as="alternateBounds" />
          </mxGeometry>
        </mxCell>
        <mxCell id="YyWZi0rBc3QcvuE9bfLS-283" value="&lt;div&gt;&amp;nbsp; state varchar(50) DEFAULT NULL&lt;/div&gt;" style="shape=partialRectangle;connectable=0;fillColor=none;top=0;left=0;bottom=0;right=0;align=left;spacingLeft=6;overflow=hidden;whiteSpace=wrap;html=1;rounded=1;labelBackgroundColor=none;strokeColor=#BAC8D3;fontColor=#182E3E;" parent="YyWZi0rBc3QcvuE9bfLS-281" vertex="1">
          <mxGeometry x="30" width="220" height="30" as="geometry">
            <mxRectangle width="220" height="30" as="alternateBounds" />
          </mxGeometry>
        </mxCell>
        <mxCell id="YyWZi0rBc3QcvuE9bfLS-284" value="" style="shape=tableRow;horizontal=0;startSize=0;swimlaneHead=0;swimlaneBody=0;fillColor=none;collapsible=0;dropTarget=0;points=[[0,0.5],[1,0.5]];portConstraint=eastwest;top=0;left=0;right=0;bottom=0;rounded=1;labelBackgroundColor=none;strokeColor=#BAC8D3;fontColor=#182E3E;" parent="YyWZi0rBc3QcvuE9bfLS-268" vertex="1">
          <mxGeometry y="180" width="250" height="30" as="geometry" />
        </mxCell>
        <mxCell id="YyWZi0rBc3QcvuE9bfLS-285" value="" style="shape=partialRectangle;connectable=0;fillColor=none;top=0;left=0;bottom=0;right=0;editable=1;overflow=hidden;whiteSpace=wrap;html=1;rounded=1;labelBackgroundColor=none;strokeColor=#BAC8D3;fontColor=#182E3E;" parent="YyWZi0rBc3QcvuE9bfLS-284" vertex="1">
          <mxGeometry width="30" height="30" as="geometry">
            <mxRectangle width="30" height="30" as="alternateBounds" />
          </mxGeometry>
        </mxCell>
        <mxCell id="YyWZi0rBc3QcvuE9bfLS-286" value="&lt;div&gt;&amp;nbsp; country varchar(50) NOT NULL&lt;/div&gt;" style="shape=partialRectangle;connectable=0;fillColor=none;top=0;left=0;bottom=0;right=0;align=left;spacingLeft=6;overflow=hidden;whiteSpace=wrap;html=1;rounded=1;labelBackgroundColor=none;strokeColor=#BAC8D3;fontColor=#182E3E;" parent="YyWZi0rBc3QcvuE9bfLS-284" vertex="1">
          <mxGeometry x="30" width="220" height="30" as="geometry">
            <mxRectangle width="220" height="30" as="alternateBounds" />
          </mxGeometry>
        </mxCell>
        <mxCell id="YyWZi0rBc3QcvuE9bfLS-287" value="" style="shape=tableRow;horizontal=0;startSize=0;swimlaneHead=0;swimlaneBody=0;fillColor=none;collapsible=0;dropTarget=0;points=[[0,0.5],[1,0.5]];portConstraint=eastwest;top=0;left=0;right=0;bottom=0;rounded=1;labelBackgroundColor=none;strokeColor=#BAC8D3;fontColor=#182E3E;" parent="YyWZi0rBc3QcvuE9bfLS-268" vertex="1">
          <mxGeometry y="210" width="250" height="30" as="geometry" />
        </mxCell>
        <mxCell id="YyWZi0rBc3QcvuE9bfLS-288" value="" style="shape=partialRectangle;connectable=0;fillColor=none;top=0;left=0;bottom=0;right=0;editable=1;overflow=hidden;whiteSpace=wrap;html=1;rounded=1;labelBackgroundColor=none;strokeColor=#BAC8D3;fontColor=#182E3E;" parent="YyWZi0rBc3QcvuE9bfLS-287" vertex="1">
          <mxGeometry width="30" height="30" as="geometry">
            <mxRectangle width="30" height="30" as="alternateBounds" />
          </mxGeometry>
        </mxCell>
        <mxCell id="YyWZi0rBc3QcvuE9bfLS-289" value="&lt;div&gt;&amp;nbsp; postalCode varchar(15) NOT NULL&lt;/div&gt;" style="shape=partialRectangle;connectable=0;fillColor=none;top=0;left=0;bottom=0;right=0;align=left;spacingLeft=6;overflow=hidden;whiteSpace=wrap;html=1;rounded=1;labelBackgroundColor=none;strokeColor=#BAC8D3;fontColor=#182E3E;" parent="YyWZi0rBc3QcvuE9bfLS-287" vertex="1">
          <mxGeometry x="30" width="220" height="30" as="geometry">
            <mxRectangle width="220" height="30" as="alternateBounds" />
          </mxGeometry>
        </mxCell>
        <mxCell id="YyWZi0rBc3QcvuE9bfLS-290" value="" style="shape=tableRow;horizontal=0;startSize=0;swimlaneHead=0;swimlaneBody=0;fillColor=none;collapsible=0;dropTarget=0;points=[[0,0.5],[1,0.5]];portConstraint=eastwest;top=0;left=0;right=0;bottom=0;rounded=1;labelBackgroundColor=none;strokeColor=#BAC8D3;fontColor=#182E3E;" parent="YyWZi0rBc3QcvuE9bfLS-268" vertex="1">
          <mxGeometry y="240" width="250" height="30" as="geometry" />
        </mxCell>
        <mxCell id="YyWZi0rBc3QcvuE9bfLS-291" value="" style="shape=partialRectangle;connectable=0;fillColor=none;top=0;left=0;bottom=0;right=0;editable=1;overflow=hidden;whiteSpace=wrap;html=1;rounded=1;labelBackgroundColor=none;strokeColor=#BAC8D3;fontColor=#182E3E;" parent="YyWZi0rBc3QcvuE9bfLS-290" vertex="1">
          <mxGeometry width="30" height="30" as="geometry">
            <mxRectangle width="30" height="30" as="alternateBounds" />
          </mxGeometry>
        </mxCell>
        <mxCell id="YyWZi0rBc3QcvuE9bfLS-292" value="&lt;div&gt;&amp;nbsp; territory varchar(10) NOT NULL&lt;/div&gt;" style="shape=partialRectangle;connectable=0;fillColor=none;top=0;left=0;bottom=0;right=0;align=left;spacingLeft=6;overflow=hidden;whiteSpace=wrap;html=1;rounded=1;labelBackgroundColor=none;strokeColor=#BAC8D3;fontColor=#182E3E;" parent="YyWZi0rBc3QcvuE9bfLS-290" vertex="1">
          <mxGeometry x="30" width="220" height="30" as="geometry">
            <mxRectangle width="220" height="30" as="alternateBounds" />
          </mxGeometry>
        </mxCell>
        <mxCell id="YyWZi0rBc3QcvuE9bfLS-296" value="discounts" style="shape=table;startSize=30;container=1;collapsible=1;childLayout=tableLayout;fixedRows=1;rowLines=0;fontStyle=1;align=center;resizeLast=1;html=1;rounded=1;labelBackgroundColor=none;fillColor=#FFCCE6;strokeColor=#FF3333;fontColor=#182E3E;shadow=0;swimlaneFillColor=#33FFFF;strokeWidth=2;gradientColor=#3333FF;gradientDirection=north;" parent="1" vertex="1">
          <mxGeometry x="322.5" y="-925" width="210" height="120" as="geometry" />
        </mxCell>
        <mxCell id="YyWZi0rBc3QcvuE9bfLS-297" value="" style="shape=tableRow;horizontal=0;startSize=0;swimlaneHead=0;swimlaneBody=0;fillColor=none;collapsible=0;dropTarget=0;points=[[0,0.5],[1,0.5]];portConstraint=eastwest;top=0;left=0;right=0;bottom=1;rounded=1;labelBackgroundColor=none;strokeColor=#BAC8D3;fontColor=#182E3E;" parent="YyWZi0rBc3QcvuE9bfLS-296" vertex="1">
          <mxGeometry y="30" width="210" height="30" as="geometry" />
        </mxCell>
        <mxCell id="YyWZi0rBc3QcvuE9bfLS-298" value="PK" style="shape=partialRectangle;connectable=0;fillColor=none;top=0;left=0;bottom=0;right=0;fontStyle=1;overflow=hidden;whiteSpace=wrap;html=1;rounded=1;labelBackgroundColor=none;strokeColor=#BAC8D3;fontColor=#182E3E;" parent="YyWZi0rBc3QcvuE9bfLS-297" vertex="1">
          <mxGeometry width="30" height="30" as="geometry">
            <mxRectangle width="30" height="30" as="alternateBounds" />
          </mxGeometry>
        </mxCell>
        <mxCell id="YyWZi0rBc3QcvuE9bfLS-299" value="&amp;nbsp; discountCode varchar(15)" style="shape=partialRectangle;connectable=0;fillColor=none;top=0;left=0;bottom=0;right=0;align=left;spacingLeft=6;fontStyle=5;overflow=hidden;whiteSpace=wrap;html=1;rounded=1;labelBackgroundColor=none;strokeColor=#BAC8D3;fontColor=#182E3E;" parent="YyWZi0rBc3QcvuE9bfLS-297" vertex="1">
          <mxGeometry x="30" width="180" height="30" as="geometry">
            <mxRectangle width="180" height="30" as="alternateBounds" />
          </mxGeometry>
        </mxCell>
        <mxCell id="YyWZi0rBc3QcvuE9bfLS-300" value="" style="shape=tableRow;horizontal=0;startSize=0;swimlaneHead=0;swimlaneBody=0;fillColor=none;collapsible=0;dropTarget=0;points=[[0,0.5],[1,0.5]];portConstraint=eastwest;top=0;left=0;right=0;bottom=0;rounded=1;labelBackgroundColor=none;strokeColor=#BAC8D3;fontColor=#182E3E;" parent="YyWZi0rBc3QcvuE9bfLS-296" vertex="1">
          <mxGeometry y="60" width="210" height="30" as="geometry" />
        </mxCell>
        <mxCell id="YyWZi0rBc3QcvuE9bfLS-301" value="" style="shape=partialRectangle;connectable=0;fillColor=none;top=0;left=0;bottom=0;right=0;editable=1;overflow=hidden;whiteSpace=wrap;html=1;rounded=1;labelBackgroundColor=none;strokeColor=#BAC8D3;fontColor=#182E3E;" parent="YyWZi0rBc3QcvuE9bfLS-300" vertex="1">
          <mxGeometry width="30" height="30" as="geometry">
            <mxRectangle width="30" height="30" as="alternateBounds" />
          </mxGeometry>
        </mxCell>
        <mxCell id="YyWZi0rBc3QcvuE9bfLS-302" value="numbers numeric NOT NULL" style="shape=partialRectangle;connectable=0;fillColor=none;top=0;left=0;bottom=0;right=0;align=left;spacingLeft=6;overflow=hidden;whiteSpace=wrap;html=1;rounded=1;labelBackgroundColor=none;strokeColor=#BAC8D3;fontColor=#182E3E;" parent="YyWZi0rBc3QcvuE9bfLS-300" vertex="1">
          <mxGeometry x="30" width="180" height="30" as="geometry">
            <mxRectangle width="180" height="30" as="alternateBounds" />
          </mxGeometry>
        </mxCell>
        <mxCell id="5lhraJMJDzkS9wGealHD-2" value="" style="shape=tableRow;horizontal=0;startSize=0;swimlaneHead=0;swimlaneBody=0;fillColor=none;collapsible=0;dropTarget=0;points=[[0,0.5],[1,0.5]];portConstraint=eastwest;top=0;left=0;right=0;bottom=0;rounded=1;labelBackgroundColor=none;strokeColor=#BAC8D3;fontColor=#182E3E;" parent="YyWZi0rBc3QcvuE9bfLS-296" vertex="1">
          <mxGeometry y="90" width="210" height="30" as="geometry" />
        </mxCell>
        <mxCell id="5lhraJMJDzkS9wGealHD-3" value="" style="shape=partialRectangle;connectable=0;fillColor=none;top=0;left=0;bottom=0;right=0;editable=1;overflow=hidden;whiteSpace=wrap;html=1;rounded=1;labelBackgroundColor=none;strokeColor=#BAC8D3;fontColor=#182E3E;" parent="5lhraJMJDzkS9wGealHD-2" vertex="1">
          <mxGeometry width="30" height="30" as="geometry">
            <mxRectangle width="30" height="30" as="alternateBounds" />
          </mxGeometry>
        </mxCell>
        <mxCell id="5lhraJMJDzkS9wGealHD-4" value="amount numeric NOT NULL" style="shape=partialRectangle;connectable=0;fillColor=none;top=0;left=0;bottom=0;right=0;align=left;spacingLeft=6;overflow=hidden;whiteSpace=wrap;html=1;rounded=1;labelBackgroundColor=none;strokeColor=#BAC8D3;fontColor=#182E3E;" parent="5lhraJMJDzkS9wGealHD-2" vertex="1">
          <mxGeometry x="30" width="180" height="30" as="geometry">
            <mxRectangle width="180" height="30" as="alternateBounds" />
          </mxGeometry>
        </mxCell>
        <mxCell id="YyWZi0rBc3QcvuE9bfLS-313" value="Buys" style="shape=rhombus;perimeter=rhombusPerimeter;whiteSpace=wrap;html=1;align=center;rounded=1;labelBackgroundColor=none;fillColor=#00CCCC;strokeColor=#FF3333;fontColor=#182E3E;startSize=30;fontStyle=1;swimlaneFillColor=#3399FF;strokeWidth=2;gradientColor=none;gradientDirection=north;" parent="1" vertex="1">
          <mxGeometry x="-840" y="-1295" width="120" height="60" as="geometry" />
        </mxCell>
        <mxCell id="YyWZi0rBc3QcvuE9bfLS-317" value="" style="endArrow=none;html=1;rounded=1;entryX=0;entryY=0.5;entryDx=0;entryDy=0;shape=link;labelBackgroundColor=none;strokeColor=#FF3333;fontColor=default;fillColor=#0050ef;strokeWidth=2;exitX=0.952;exitY=0.5;exitDx=0;exitDy=0;exitPerimeter=0;" parent="1" source="YyWZi0rBc3QcvuE9bfLS-313" target="YyWZi0rBc3QcvuE9bfLS-143" edge="1">
          <mxGeometry relative="1" as="geometry">
            <mxPoint x="-726" y="-1295" as="sourcePoint" />
            <mxPoint x="-600" y="-1280" as="targetPoint" />
          </mxGeometry>
        </mxCell>
        <mxCell id="YyWZi0rBc3QcvuE9bfLS-318" value="" style="resizable=0;html=1;whiteSpace=wrap;align=left;verticalAlign=bottom;rounded=1;labelBackgroundColor=none;fillColor=#B1DDF0;strokeColor=#BAC8D3;fontColor=#182E3E;" parent="YyWZi0rBc3QcvuE9bfLS-317" connectable="0" vertex="1">
          <mxGeometry x="-1" relative="1" as="geometry" />
        </mxCell>
        <mxCell id="YyWZi0rBc3QcvuE9bfLS-319" value="" style="resizable=0;html=1;whiteSpace=wrap;align=right;verticalAlign=bottom;rounded=1;labelBackgroundColor=none;fillColor=#B1DDF0;strokeColor=#BAC8D3;fontColor=#182E3E;" parent="YyWZi0rBc3QcvuE9bfLS-317" connectable="0" vertex="1">
          <mxGeometry x="1" relative="1" as="geometry" />
        </mxCell>
        <mxCell id="YyWZi0rBc3QcvuE9bfLS-320" value="Have" style="shape=rhombus;perimeter=rhombusPerimeter;whiteSpace=wrap;html=1;align=center;rounded=1;labelBackgroundColor=none;fillColor=#00CCCC;strokeColor=#FF3333;fontColor=#182E3E;startSize=30;fontStyle=1;swimlaneFillColor=#3399FF;strokeWidth=2;gradientColor=none;gradientDirection=north;" parent="1" vertex="1">
          <mxGeometry x="-365" y="-1295" width="120" height="60" as="geometry" />
        </mxCell>
        <mxCell id="YyWZi0rBc3QcvuE9bfLS-328" value="Includes" style="shape=rhombus;perimeter=rhombusPerimeter;whiteSpace=wrap;html=1;align=center;rounded=1;labelBackgroundColor=none;fillColor=#00CCCC;strokeColor=#FF3333;fontColor=#182E3E;startSize=30;fontStyle=1;swimlaneFillColor=#3399FF;strokeWidth=2;gradientColor=none;gradientDirection=north;" parent="1" vertex="1">
          <mxGeometry x="-125" y="-1140" width="120" height="60" as="geometry" />
        </mxCell>
        <mxCell id="YyWZi0rBc3QcvuE9bfLS-339" value="Contains" style="shape=rhombus;double=1;perimeter=rhombusPerimeter;whiteSpace=wrap;html=1;align=center;rounded=1;labelBackgroundColor=none;fillColor=#00CCCC;strokeColor=#FF3333;fontColor=#182E3E;startSize=30;fontStyle=1;swimlaneFillColor=#3399FF;strokeWidth=2;gradientColor=none;gradientDirection=north;" parent="1" vertex="1">
          <mxGeometry x="130" y="-895" width="120" height="60" as="geometry" />
        </mxCell>
        <mxCell id="YyWZi0rBc3QcvuE9bfLS-340" value="" style="endArrow=none;html=1;rounded=1;entryX=0.037;entryY=0.498;entryDx=0;entryDy=0;labelBackgroundColor=none;strokeColor=#FF3333;fontColor=default;fillColor=#0050ef;strokeWidth=2;entryPerimeter=0;exitX=1;exitY=0.5;exitDx=0;exitDy=0;" parent="1" source="YyWZi0rBc3QcvuE9bfLS-212" target="YyWZi0rBc3QcvuE9bfLS-339" edge="1">
          <mxGeometry relative="1" as="geometry">
            <mxPoint x="114" y="-892" as="sourcePoint" />
            <mxPoint x="144" y="-1261" as="targetPoint" />
          </mxGeometry>
        </mxCell>
        <mxCell id="YyWZi0rBc3QcvuE9bfLS-341" value="" style="resizable=0;html=1;whiteSpace=wrap;align=left;verticalAlign=bottom;rounded=1;labelBackgroundColor=none;fillColor=#B1DDF0;strokeColor=#BAC8D3;fontColor=#182E3E;" parent="YyWZi0rBc3QcvuE9bfLS-340" connectable="0" vertex="1">
          <mxGeometry x="-1" relative="1" as="geometry" />
        </mxCell>
        <mxCell id="YyWZi0rBc3QcvuE9bfLS-342" value="" style="resizable=0;html=1;whiteSpace=wrap;align=right;verticalAlign=bottom;rounded=1;labelBackgroundColor=none;fillColor=#B1DDF0;strokeColor=#BAC8D3;fontColor=#182E3E;" parent="YyWZi0rBc3QcvuE9bfLS-340" connectable="0" vertex="1">
          <mxGeometry x="1" relative="1" as="geometry" />
        </mxCell>
        <mxCell id="YyWZi0rBc3QcvuE9bfLS-348" value="Production" style="shape=rhombus;perimeter=rhombusPerimeter;whiteSpace=wrap;html=1;align=center;rounded=1;labelBackgroundColor=none;fillColor=#00CCCC;strokeColor=#FF3333;fontColor=#182E3E;startSize=30;fontStyle=1;swimlaneFillColor=#3399FF;strokeWidth=2;gradientColor=none;gradientDirection=north;" parent="1" vertex="1">
          <mxGeometry x="-365" y="-895" width="120" height="60" as="geometry" />
        </mxCell>
        <mxCell id="YyWZi0rBc3QcvuE9bfLS-349" value="" style="endArrow=none;html=1;rounded=1;entryX=0;entryY=0.5;entryDx=0;entryDy=0;exitX=0.953;exitY=0.498;exitDx=0;exitDy=0;shape=link;labelBackgroundColor=none;strokeColor=#FF3333;fontColor=default;fillColor=#0050ef;strokeWidth=2;exitPerimeter=0;" parent="1" source="YyWZi0rBc3QcvuE9bfLS-348" target="YyWZi0rBc3QcvuE9bfLS-212" edge="1">
          <mxGeometry relative="1" as="geometry">
            <mxPoint x="-110" y="-840" as="sourcePoint" />
            <mxPoint x="-250" y="-920" as="targetPoint" />
          </mxGeometry>
        </mxCell>
        <mxCell id="YyWZi0rBc3QcvuE9bfLS-350" value="" style="resizable=0;html=1;whiteSpace=wrap;align=left;verticalAlign=bottom;rounded=1;labelBackgroundColor=none;fillColor=#B1DDF0;strokeColor=#BAC8D3;fontColor=#182E3E;" parent="YyWZi0rBc3QcvuE9bfLS-349" connectable="0" vertex="1">
          <mxGeometry x="-1" relative="1" as="geometry" />
        </mxCell>
        <mxCell id="YyWZi0rBc3QcvuE9bfLS-351" value="" style="resizable=0;html=1;whiteSpace=wrap;align=right;verticalAlign=bottom;rounded=1;labelBackgroundColor=none;fillColor=#B1DDF0;strokeColor=#BAC8D3;fontColor=#182E3E;" parent="YyWZi0rBc3QcvuE9bfLS-349" connectable="0" vertex="1">
          <mxGeometry x="1" relative="1" as="geometry" />
        </mxCell>
        <mxCell id="YyWZi0rBc3QcvuE9bfLS-352" value="" style="endArrow=none;html=1;rounded=1;entryX=0.042;entryY=0.5;entryDx=0;entryDy=0;exitX=1;exitY=0.5;exitDx=0;exitDy=0;labelBackgroundColor=none;strokeColor=#FF3333;fontColor=default;fillColor=#0050ef;strokeWidth=2;entryPerimeter=0;" parent="1" source="YyWZi0rBc3QcvuE9bfLS-234" target="YyWZi0rBc3QcvuE9bfLS-348" edge="1">
          <mxGeometry relative="1" as="geometry">
            <mxPoint x="-410" y="-920" as="sourcePoint" />
            <mxPoint x="-250" y="-920" as="targetPoint" />
          </mxGeometry>
        </mxCell>
        <mxCell id="YyWZi0rBc3QcvuE9bfLS-353" value="" style="resizable=0;html=1;whiteSpace=wrap;align=left;verticalAlign=bottom;rounded=1;labelBackgroundColor=none;fillColor=#B1DDF0;strokeColor=#BAC8D3;fontColor=#182E3E;" parent="YyWZi0rBc3QcvuE9bfLS-352" connectable="0" vertex="1">
          <mxGeometry x="-1" relative="1" as="geometry" />
        </mxCell>
        <mxCell id="YyWZi0rBc3QcvuE9bfLS-354" value="" style="resizable=0;html=1;whiteSpace=wrap;align=right;verticalAlign=bottom;rounded=1;labelBackgroundColor=none;fillColor=#B1DDF0;strokeColor=#BAC8D3;fontColor=#182E3E;" parent="YyWZi0rBc3QcvuE9bfLS-352" connectable="0" vertex="1">
          <mxGeometry x="1" relative="1" as="geometry" />
        </mxCell>
        <mxCell id="YyWZi0rBc3QcvuE9bfLS-355" value="Sale" style="shape=rhombus;perimeter=rhombusPerimeter;whiteSpace=wrap;html=1;align=center;rounded=1;labelBackgroundColor=none;fillColor=#00CCCC;strokeColor=#FF3333;fontColor=#182E3E;startSize=30;fontStyle=1;swimlaneFillColor=#3399FF;strokeWidth=2;gradientColor=none;gradientDirection=north;" parent="1" vertex="1">
          <mxGeometry x="-1155" y="-952" width="120" height="60" as="geometry" />
        </mxCell>
        <mxCell id="YyWZi0rBc3QcvuE9bfLS-362" value="WorkPlace" style="shape=rhombus;perimeter=rhombusPerimeter;whiteSpace=wrap;html=1;align=center;rounded=1;labelBackgroundColor=none;fillColor=#00CCCC;strokeColor=#FF3333;fontColor=#182E3E;startSize=30;fontStyle=1;swimlaneFillColor=#3399FF;strokeWidth=2;gradientColor=none;gradientDirection=north;" parent="1" vertex="1">
          <mxGeometry x="-1175" y="-547" width="120" height="60" as="geometry" />
        </mxCell>
        <mxCell id="YyWZi0rBc3QcvuE9bfLS-363" value="" style="endArrow=none;html=1;rounded=1;entryX=0.499;entryY=0.032;entryDx=0;entryDy=0;exitX=0.431;exitY=1.026;exitDx=0;exitDy=0;exitPerimeter=0;shape=link;labelBackgroundColor=none;strokeColor=#FF3333;fontColor=default;fillColor=#0050ef;strokeWidth=2;entryPerimeter=0;" parent="1" source="YyWZi0rBc3QcvuE9bfLS-262" target="YyWZi0rBc3QcvuE9bfLS-362" edge="1">
          <mxGeometry relative="1" as="geometry">
            <mxPoint x="-1020" y="-598" as="sourcePoint" />
            <mxPoint x="-850" y="-530" as="targetPoint" />
          </mxGeometry>
        </mxCell>
        <mxCell id="YyWZi0rBc3QcvuE9bfLS-364" value="" style="resizable=0;html=1;whiteSpace=wrap;align=left;verticalAlign=bottom;rounded=1;labelBackgroundColor=none;fillColor=#B1DDF0;strokeColor=#BAC8D3;fontColor=#182E3E;" parent="YyWZi0rBc3QcvuE9bfLS-363" connectable="0" vertex="1">
          <mxGeometry x="-1" relative="1" as="geometry">
            <mxPoint y="18" as="offset" />
          </mxGeometry>
        </mxCell>
        <mxCell id="YyWZi0rBc3QcvuE9bfLS-365" value="" style="resizable=0;html=1;whiteSpace=wrap;align=right;verticalAlign=bottom;rounded=1;labelBackgroundColor=none;fillColor=#B1DDF0;strokeColor=#BAC8D3;fontColor=#182E3E;" parent="YyWZi0rBc3QcvuE9bfLS-363" connectable="0" vertex="1">
          <mxGeometry x="1" relative="1" as="geometry" />
        </mxCell>
        <mxCell id="YyWZi0rBc3QcvuE9bfLS-370" value="" style="endArrow=none;html=1;rounded=1;labelBackgroundColor=none;strokeColor=#FF3333;fontColor=default;fillColor=#0050ef;strokeWidth=2;exitX=0.499;exitY=0.031;exitDx=0;exitDy=0;exitPerimeter=0;entryX=0.452;entryY=1.031;entryDx=0;entryDy=0;entryPerimeter=0;shape=link;" parent="1" source="YyWZi0rBc3QcvuE9bfLS-328" target="YyWZi0rBc3QcvuE9bfLS-196" edge="1">
          <mxGeometry relative="1" as="geometry">
            <mxPoint x="-65" y="-1124" as="sourcePoint" />
            <mxPoint x="-65" y="-1211" as="targetPoint" />
          </mxGeometry>
        </mxCell>
        <mxCell id="YyWZi0rBc3QcvuE9bfLS-371" value="" style="resizable=0;html=1;whiteSpace=wrap;align=left;verticalAlign=bottom;rounded=1;labelBackgroundColor=none;fillColor=#B1DDF0;strokeColor=#BAC8D3;fontColor=#182E3E;" parent="YyWZi0rBc3QcvuE9bfLS-370" connectable="0" vertex="1">
          <mxGeometry x="-1" relative="1" as="geometry" />
        </mxCell>
        <mxCell id="YyWZi0rBc3QcvuE9bfLS-372" value="" style="resizable=0;html=1;whiteSpace=wrap;align=right;verticalAlign=bottom;rounded=1;labelBackgroundColor=none;fillColor=#B1DDF0;strokeColor=#BAC8D3;fontColor=#182E3E;" parent="YyWZi0rBc3QcvuE9bfLS-370" connectable="0" vertex="1">
          <mxGeometry x="1" relative="1" as="geometry" />
        </mxCell>
        <mxCell id="YyWZi0rBc3QcvuE9bfLS-373" value="" style="endArrow=none;html=1;rounded=1;exitX=0.411;exitY=1.009;exitDx=0;exitDy=0;exitPerimeter=0;entryX=0.497;entryY=0.024;entryDx=0;entryDy=0;labelBackgroundColor=none;strokeColor=#FF3333;fontColor=default;fillColor=#0050ef;entryPerimeter=0;strokeWidth=2;" parent="1" source="YyWZi0rBc3QcvuE9bfLS-130" target="YyWZi0rBc3QcvuE9bfLS-355" edge="1">
          <mxGeometry relative="1" as="geometry">
            <mxPoint x="-1100" y="-920" as="sourcePoint" />
            <mxPoint x="-940" y="-920" as="targetPoint" />
          </mxGeometry>
        </mxCell>
        <mxCell id="YyWZi0rBc3QcvuE9bfLS-374" value="" style="resizable=0;html=1;whiteSpace=wrap;align=left;verticalAlign=bottom;rounded=1;labelBackgroundColor=none;fillColor=#B1DDF0;strokeColor=#BAC8D3;fontColor=#182E3E;" parent="YyWZi0rBc3QcvuE9bfLS-373" connectable="0" vertex="1">
          <mxGeometry x="-1" relative="1" as="geometry">
            <mxPoint y="18" as="offset" />
          </mxGeometry>
        </mxCell>
        <mxCell id="YyWZi0rBc3QcvuE9bfLS-375" value="" style="resizable=0;html=1;whiteSpace=wrap;align=right;verticalAlign=bottom;rounded=1;labelBackgroundColor=none;fillColor=#B1DDF0;strokeColor=#BAC8D3;fontColor=#182E3E;" parent="YyWZi0rBc3QcvuE9bfLS-373" connectable="0" vertex="1">
          <mxGeometry x="1" relative="1" as="geometry" />
        </mxCell>
        <mxCell id="YyWZi0rBc3QcvuE9bfLS-379" value="" style="rounded=1;whiteSpace=wrap;html=1;fillColor=none;glass=0;shadow=0;labelBackgroundColor=none;strokeColor=#FF3333;fontColor=#182E3E;strokeWidth=2;" parent="1" vertex="1">
          <mxGeometry x="310" y="-934" width="235" height="138" as="geometry" />
        </mxCell>
        <mxCell id="69rP5qAAxECRKgYWpX-x-5" value="" style="endArrow=open;html=1;rounded=1;endFill=0;shape=flexArrow;endWidth=9.069767441860465;endSize=2.2418604651162792;width=3.255813953488372;strokeColor=#FF3333;strokeWidth=2;exitX=0.05;exitY=0.5;exitDx=0;exitDy=0;exitPerimeter=0;" parent="1" source="YyWZi0rBc3QcvuE9bfLS-313" target="YyWZi0rBc3QcvuE9bfLS-106" edge="1">
          <mxGeometry width="50" height="50" relative="1" as="geometry">
            <mxPoint x="-835" y="-1295" as="sourcePoint" />
            <mxPoint x="-889" y="-1295" as="targetPoint" />
          </mxGeometry>
        </mxCell>
        <mxCell id="69rP5qAAxECRKgYWpX-x-8" value="" style="endArrow=open;html=1;rounded=1;shape=flexArrow;strokeColor=#FF3333;endFill=0;endSize=2.8461538461538463;strokeWidth=2;endWidth=4.763313609467455;width=4.230769230769231;exitX=0.047;exitY=0.497;exitDx=0;exitDy=0;exitPerimeter=0;" parent="1" source="YyWZi0rBc3QcvuE9bfLS-320" edge="1">
          <mxGeometry width="50" height="50" relative="1" as="geometry">
            <mxPoint x="-360" y="-1210" as="sourcePoint" />
            <mxPoint x="-410" y="-1265" as="targetPoint" />
          </mxGeometry>
        </mxCell>
        <mxCell id="69rP5qAAxECRKgYWpX-x-9" value="" style="endArrow=none;html=1;rounded=1;shape=flexArrow;strokeColor=#FF3333;endFill=0;endSize=2.157046979865772;strokeWidth=2;endWidth=11.012954580927111;width=3.9534883720930236;labelBackgroundColor=none;fillColor=none;exitX=0.002;exitY=0.498;exitDx=0;exitDy=0;exitPerimeter=0;" parent="1" source="YyWZi0rBc3QcvuE9bfLS-190" edge="1">
          <mxGeometry width="50" height="50" relative="1" as="geometry">
            <mxPoint x="-246" y="-1219" as="sourcePoint" />
            <mxPoint x="-251" y="-1265" as="targetPoint" />
          </mxGeometry>
        </mxCell>
        <mxCell id="69rP5qAAxECRKgYWpX-x-11" value="" style="endArrow=classic;html=1;rounded=0;exitX=0.5;exitY=0.98;exitDx=0;exitDy=0;entryX=0.5;entryY=0;entryDx=0;entryDy=0;strokeColor=#FF3333;strokeWidth=2;endFill=1;exitPerimeter=0;" parent="1" source="YyWZi0rBc3QcvuE9bfLS-355" target="YyWZi0rBc3QcvuE9bfLS-243" edge="1">
          <mxGeometry width="50" height="50" relative="1" as="geometry">
            <mxPoint x="-977" y="-864" as="sourcePoint" />
            <mxPoint x="-927" y="-914" as="targetPoint" />
          </mxGeometry>
        </mxCell>
        <mxCell id="69rP5qAAxECRKgYWpX-x-12" value="" style="endArrow=classic;html=1;rounded=0;exitX=0.491;exitY=0.958;exitDx=0;exitDy=0;exitPerimeter=0;strokeColor=#FF3333;strokeWidth=2;endFill=1;entryX=0.499;entryY=-0.002;entryDx=0;entryDy=0;entryPerimeter=0;" parent="1" source="YyWZi0rBc3QcvuE9bfLS-362" target="YyWZi0rBc3QcvuE9bfLS-268" edge="1">
          <mxGeometry width="50" height="50" relative="1" as="geometry">
            <mxPoint x="-1127" y="-443" as="sourcePoint" />
            <mxPoint x="-1115" y="-443" as="targetPoint" />
          </mxGeometry>
        </mxCell>
        <mxCell id="69rP5qAAxECRKgYWpX-x-14" value="" style="shape=flexArrow;endArrow=open;html=1;rounded=1;strokeColor=#FF3333;endFill=0;endSize=2.3746606334841625;strokeWidth=2;entryX=0;entryY=0.5;entryDx=0;entryDy=0;exitX=0.952;exitY=0.497;exitDx=0;exitDy=0;exitPerimeter=0;endWidth=7.04367232448148;width=3.167420814479638;" parent="1" source="YyWZi0rBc3QcvuE9bfLS-339" target="YyWZi0rBc3QcvuE9bfLS-379" edge="1">
          <mxGeometry width="50" height="50" relative="1" as="geometry">
            <mxPoint x="248" y="-1275" as="sourcePoint" />
            <mxPoint x="298" y="-1325" as="targetPoint" />
          </mxGeometry>
        </mxCell>
        <mxCell id="69rP5qAAxECRKgYWpX-x-18" value="Working For" style="shape=rhombus;perimeter=rhombusPerimeter;whiteSpace=wrap;html=1;align=center;fillColor=#00CCCC;strokeColor=#FF3333;fontColor=#182E3E;rounded=1;labelBackgroundColor=none;startSize=30;fontStyle=1;swimlaneFillColor=#3399FF;strokeWidth=2;gradientColor=none;gradientDirection=north;" parent="1" vertex="1">
          <mxGeometry x="-1395" y="-745" width="120" height="60" as="geometry" />
        </mxCell>
        <mxCell id="69rP5qAAxECRKgYWpX-x-20" value="" style="endArrow=none;html=1;rounded=1;exitX=0.496;exitY=0.023;exitDx=0;exitDy=0;labelBackgroundColor=none;strokeColor=#FF3333;fillColor=#0050ef;strokeWidth=2;exitPerimeter=0;" parent="1" source="69rP5qAAxECRKgYWpX-x-18" edge="1">
          <mxGeometry width="50" height="50" relative="1" as="geometry">
            <mxPoint x="-1353" y="-756" as="sourcePoint" />
            <mxPoint x="-1336" y="-791" as="targetPoint" />
          </mxGeometry>
        </mxCell>
        <mxCell id="69rP5qAAxECRKgYWpX-x-21" value="" style="endArrow=classic;html=1;rounded=0;entryX=0;entryY=0.5;entryDx=0;entryDy=0;strokeColor=#FF3333;strokeWidth=2;endFill=1;" parent="1" target="YyWZi0rBc3QcvuE9bfLS-244" edge="1">
          <mxGeometry width="50" height="50" relative="1" as="geometry">
            <mxPoint x="-1336" y="-790" as="sourcePoint" />
            <mxPoint x="-1262" y="-804" as="targetPoint" />
          </mxGeometry>
        </mxCell>
        <mxCell id="69rP5qAAxECRKgYWpX-x-22" value="" style="endArrow=none;html=1;rounded=1;entryX=0.496;entryY=0.969;entryDx=0;entryDy=0;labelBackgroundColor=none;strokeColor=#FF3333;fillColor=#0050ef;strokeWidth=2;entryPerimeter=0;" parent="1" target="69rP5qAAxECRKgYWpX-x-18" edge="1">
          <mxGeometry width="50" height="50" relative="1" as="geometry">
            <mxPoint x="-1336" y="-639" as="sourcePoint" />
            <mxPoint x="-1302" y="-688" as="targetPoint" />
          </mxGeometry>
        </mxCell>
        <mxCell id="69rP5qAAxECRKgYWpX-x-23" value="" style="endArrow=none;html=1;rounded=1;entryX=0;entryY=0.5;entryDx=0;entryDy=0;labelBackgroundColor=none;strokeColor=#FF3333;fillColor=#0050ef;strokeWidth=2;" parent="1" target="YyWZi0rBc3QcvuE9bfLS-259" edge="1">
          <mxGeometry width="50" height="50" relative="1" as="geometry">
            <mxPoint x="-1336" y="-640" as="sourcePoint" />
            <mxPoint x="-1262" y="-694" as="targetPoint" />
          </mxGeometry>
        </mxCell>
        <mxCell id="5lhraJMJDzkS9wGealHD-1" value="" style="endArrow=open;html=1;rounded=1;strokeColor=#FF3333;endFill=0;strokeWidth=2;endWidth=7.937023015443783;exitX=0.492;exitY=0.951;exitDx=0;exitDy=0;exitPerimeter=0;entryX=0.498;entryY=-0.002;entryDx=0;entryDy=0;entryPerimeter=0;" parent="1" source="YyWZi0rBc3QcvuE9bfLS-328" target="YyWZi0rBc3QcvuE9bfLS-202" edge="1">
          <mxGeometry width="50" height="50" relative="1" as="geometry">
            <mxPoint x="-24" y="-1044" as="sourcePoint" />
            <mxPoint x="-65" y="-1001" as="targetPoint" />
          </mxGeometry>
        </mxCell>
        <mxCell id="AAYbD8rbA74DxQ_qrK1C-51" value="payments" style="shape=table;startSize=30;container=1;collapsible=1;childLayout=tableLayout;fixedRows=1;rowLines=0;fontStyle=1;align=center;resizeLast=1;html=1;whiteSpace=wrap;rounded=1;swimlaneLine=1;shadow=0;labelBackgroundColor=none;fillColor=#FFCCE6;strokeColor=#FF3333;fontColor=#182E3E;swimlaneFillColor=#33FFFF;strokeWidth=2;gradientColor=#3333FF;gradientDirection=north;" vertex="1" parent="1">
          <mxGeometry x="-1893" y="-1280" width="359.5000000000002" height="150" as="geometry" />
        </mxCell>
        <mxCell id="AAYbD8rbA74DxQ_qrK1C-52" value="" style="shape=tableRow;horizontal=0;startSize=0;swimlaneHead=0;swimlaneBody=0;fillColor=none;collapsible=0;dropTarget=0;points=[[0,0.5],[1,0.5]];portConstraint=eastwest;top=0;left=0;right=0;bottom=0;html=1;rounded=1;labelBackgroundColor=none;strokeColor=#BAC8D3;fontColor=#182E3E;" vertex="1" parent="AAYbD8rbA74DxQ_qrK1C-51">
          <mxGeometry y="30" width="359.5000000000002" height="30" as="geometry" />
        </mxCell>
        <mxCell id="AAYbD8rbA74DxQ_qrK1C-53" value="PK,FK" style="shape=partialRectangle;connectable=0;fillColor=none;top=0;left=0;bottom=0;right=0;fontStyle=1;overflow=hidden;html=1;whiteSpace=wrap;rounded=1;labelBackgroundColor=none;strokeColor=#BAC8D3;fontColor=#182E3E;" vertex="1" parent="AAYbD8rbA74DxQ_qrK1C-52">
          <mxGeometry width="60" height="30" as="geometry">
            <mxRectangle width="60" height="30" as="alternateBounds" />
          </mxGeometry>
        </mxCell>
        <mxCell id="AAYbD8rbA74DxQ_qrK1C-54" value="&amp;nbsp; customerNumber numeric(11) NOT NULL" style="shape=partialRectangle;connectable=0;fillColor=none;top=0;left=0;bottom=0;right=0;align=left;spacingLeft=6;fontStyle=5;overflow=hidden;html=1;whiteSpace=wrap;rounded=1;labelBackgroundColor=none;strokeColor=#BAC8D3;fontColor=#182E3E;" vertex="1" parent="AAYbD8rbA74DxQ_qrK1C-52">
          <mxGeometry x="60" width="299.5000000000002" height="30" as="geometry">
            <mxRectangle width="299.5000000000002" height="30" as="alternateBounds" />
          </mxGeometry>
        </mxCell>
        <mxCell id="AAYbD8rbA74DxQ_qrK1C-55" value="" style="shape=tableRow;horizontal=0;startSize=0;swimlaneHead=0;swimlaneBody=0;fillColor=none;collapsible=0;dropTarget=0;points=[[0,0.5],[1,0.5]];portConstraint=eastwest;top=0;left=0;right=0;bottom=1;html=1;rounded=1;labelBackgroundColor=none;strokeColor=#BAC8D3;fontColor=#182E3E;" vertex="1" parent="AAYbD8rbA74DxQ_qrK1C-51">
          <mxGeometry y="60" width="359.5000000000002" height="30" as="geometry" />
        </mxCell>
        <mxCell id="AAYbD8rbA74DxQ_qrK1C-56" value="PK" style="shape=partialRectangle;connectable=0;fillColor=none;top=0;left=0;bottom=0;right=0;fontStyle=1;overflow=hidden;html=1;whiteSpace=wrap;rounded=1;labelBackgroundColor=none;strokeColor=#BAC8D3;fontColor=#182E3E;" vertex="1" parent="AAYbD8rbA74DxQ_qrK1C-55">
          <mxGeometry width="60" height="30" as="geometry">
            <mxRectangle width="60" height="30" as="alternateBounds" />
          </mxGeometry>
        </mxCell>
        <mxCell id="AAYbD8rbA74DxQ_qrK1C-57" value="&lt;u style=&quot;border-color: var(--border-color); font-weight: 400;&quot;&gt;&lt;b style=&quot;border-color: var(--border-color);&quot;&gt;&amp;nbsp; checkNumber varchar(50) NOT NULL&lt;/b&gt;&lt;/u&gt;" style="shape=partialRectangle;connectable=0;fillColor=none;top=0;left=0;bottom=0;right=0;align=left;spacingLeft=6;fontStyle=5;overflow=hidden;html=1;whiteSpace=wrap;rounded=1;labelBackgroundColor=none;strokeColor=#BAC8D3;fontColor=#182E3E;" vertex="1" parent="AAYbD8rbA74DxQ_qrK1C-55">
          <mxGeometry x="60" width="299.5000000000002" height="30" as="geometry">
            <mxRectangle width="299.5000000000002" height="30" as="alternateBounds" />
          </mxGeometry>
        </mxCell>
        <mxCell id="AAYbD8rbA74DxQ_qrK1C-58" value="" style="shape=tableRow;horizontal=0;startSize=0;swimlaneHead=0;swimlaneBody=0;fillColor=none;collapsible=0;dropTarget=0;points=[[0,0.5],[1,0.5]];portConstraint=eastwest;top=0;left=0;right=0;bottom=0;html=1;rounded=1;labelBackgroundColor=none;strokeColor=#BAC8D3;fontColor=#182E3E;" vertex="1" parent="AAYbD8rbA74DxQ_qrK1C-51">
          <mxGeometry y="90" width="359.5000000000002" height="30" as="geometry" />
        </mxCell>
        <mxCell id="AAYbD8rbA74DxQ_qrK1C-59" value="" style="shape=partialRectangle;connectable=0;fillColor=none;top=0;left=0;bottom=0;right=0;editable=1;overflow=hidden;html=1;whiteSpace=wrap;rounded=1;labelBackgroundColor=none;strokeColor=#BAC8D3;fontColor=#182E3E;" vertex="1" parent="AAYbD8rbA74DxQ_qrK1C-58">
          <mxGeometry width="60" height="30" as="geometry">
            <mxRectangle width="60" height="30" as="alternateBounds" />
          </mxGeometry>
        </mxCell>
        <mxCell id="AAYbD8rbA74DxQ_qrK1C-60" value="&amp;nbsp; paymentDate date NOT NULL" style="shape=partialRectangle;connectable=0;fillColor=none;top=0;left=0;bottom=0;right=0;align=left;spacingLeft=6;overflow=hidden;html=1;whiteSpace=wrap;rounded=1;labelBackgroundColor=none;strokeColor=#BAC8D3;fontColor=#182E3E;" vertex="1" parent="AAYbD8rbA74DxQ_qrK1C-58">
          <mxGeometry x="60" width="299.5000000000002" height="30" as="geometry">
            <mxRectangle width="299.5000000000002" height="30" as="alternateBounds" />
          </mxGeometry>
        </mxCell>
        <mxCell id="AAYbD8rbA74DxQ_qrK1C-61" value="" style="shape=tableRow;horizontal=0;startSize=0;swimlaneHead=0;swimlaneBody=0;fillColor=none;collapsible=0;dropTarget=0;points=[[0,0.5],[1,0.5]];portConstraint=eastwest;top=0;left=0;right=0;bottom=0;html=1;rounded=1;labelBackgroundColor=none;strokeColor=#BAC8D3;fontColor=#182E3E;" vertex="1" parent="AAYbD8rbA74DxQ_qrK1C-51">
          <mxGeometry y="120" width="359.5000000000002" height="30" as="geometry" />
        </mxCell>
        <mxCell id="AAYbD8rbA74DxQ_qrK1C-62" value="" style="shape=partialRectangle;connectable=0;fillColor=none;top=0;left=0;bottom=0;right=0;editable=1;overflow=hidden;html=1;whiteSpace=wrap;rounded=1;labelBackgroundColor=none;strokeColor=#BAC8D3;fontColor=#182E3E;" vertex="1" parent="AAYbD8rbA74DxQ_qrK1C-61">
          <mxGeometry width="60" height="30" as="geometry">
            <mxRectangle width="60" height="30" as="alternateBounds" />
          </mxGeometry>
        </mxCell>
        <mxCell id="AAYbD8rbA74DxQ_qrK1C-63" value="&amp;nbsp; amount decimal(10,2) NOT NULL" style="shape=partialRectangle;connectable=0;fillColor=none;top=0;left=0;bottom=0;right=0;align=left;spacingLeft=6;overflow=hidden;html=1;whiteSpace=wrap;rounded=1;labelBackgroundColor=none;strokeColor=#BAC8D3;fontColor=#182E3E;" vertex="1" parent="AAYbD8rbA74DxQ_qrK1C-61">
          <mxGeometry x="60" width="299.5000000000002" height="30" as="geometry">
            <mxRectangle width="299.5000000000002" height="30" as="alternateBounds" />
          </mxGeometry>
        </mxCell>
        <mxCell id="AAYbD8rbA74DxQ_qrK1C-67" value="Pays" style="shape=rhombus;perimeter=rhombusPerimeter;whiteSpace=wrap;html=1;align=center;rounded=1;labelBackgroundColor=none;fillColor=#00CCCC;strokeColor=#FF3333;fontColor=#182E3E;startSize=30;fontStyle=1;swimlaneFillColor=#3399FF;strokeWidth=2;gradientColor=none;gradientDirection=north;" vertex="1" parent="1">
          <mxGeometry x="-1447" y="-1235" width="120" height="60" as="geometry" />
        </mxCell>
        <mxCell id="AAYbD8rbA74DxQ_qrK1C-68" value="" style="endArrow=none;html=1;rounded=1;entryX=0.05;entryY=0.496;entryDx=0;entryDy=0;shape=link;labelBackgroundColor=none;strokeColor=#FF3333;fontColor=default;fillColor=#0050ef;strokeWidth=2;exitX=1;exitY=0.5;exitDx=0;exitDy=0;entryPerimeter=0;" edge="1" parent="1" source="AAYbD8rbA74DxQ_qrK1C-55" target="AAYbD8rbA74DxQ_qrK1C-67">
          <mxGeometry relative="1" as="geometry">
            <mxPoint x="-1499" y="-1204" as="sourcePoint" />
            <mxPoint x="-1453" y="-1204" as="targetPoint" />
          </mxGeometry>
        </mxCell>
        <mxCell id="AAYbD8rbA74DxQ_qrK1C-69" value="" style="resizable=0;html=1;whiteSpace=wrap;align=left;verticalAlign=bottom;rounded=1;labelBackgroundColor=none;fillColor=#B1DDF0;strokeColor=#BAC8D3;fontColor=#182E3E;" connectable="0" vertex="1" parent="AAYbD8rbA74DxQ_qrK1C-68">
          <mxGeometry x="-1" relative="1" as="geometry" />
        </mxCell>
        <mxCell id="AAYbD8rbA74DxQ_qrK1C-70" value="" style="resizable=0;html=1;whiteSpace=wrap;align=right;verticalAlign=bottom;rounded=1;labelBackgroundColor=none;fillColor=#B1DDF0;strokeColor=#BAC8D3;fontColor=#182E3E;" connectable="0" vertex="1" parent="AAYbD8rbA74DxQ_qrK1C-68">
          <mxGeometry x="1" relative="1" as="geometry" />
        </mxCell>
        <mxCell id="AAYbD8rbA74DxQ_qrK1C-71" value="" style="endArrow=open;html=1;rounded=1;endFill=0;shape=flexArrow;endWidth=9.069767441860465;endSize=2.2418604651162792;width=3.255813953488372;strokeColor=#FF3333;strokeWidth=2;entryX=0;entryY=0.5;entryDx=0;entryDy=0;" edge="1" parent="1" target="YyWZi0rBc3QcvuE9bfLS-112">
          <mxGeometry width="50" height="50" relative="1" as="geometry">
            <mxPoint x="-1333" y="-1205" as="sourcePoint" />
            <mxPoint x="-1258" y="-1220" as="targetPoint" />
          </mxGeometry>
        </mxCell>
      </root>
    </mxGraphModel>
  </diagram>
</mxfile>
